<svg width="21" height="20" viewBox="0 0 21 20" fill="none" xmlns="http://www.w3.org/2000/svg">
<rect width="21" height="20" rx="3" fill="black" fill-opacity="0.2"/>
<path d="M3.15 12.6886H5.06885C5.44226 12.6886 5.78455 12.4805 5.95651 12.1491L7.00571 10.1267C7.06175 10.02 7.15723 9.92837 7.28028 9.86318C7.40333 9.79799 7.54853 9.7621 7.69783 9.75998C7.84712 9.75785 7.99394 9.78959 8.12003 9.85124C8.24611 9.91289 8.34591 10.0017 8.40702 10.1067L9.65768 12.2761C10.0683 12.9884 11.1153 12.9283 11.4418 12.1737L13.074 8.40153C13.1257 8.28106 13.2268 8.1768 13.3621 8.10445C13.4974 8.03211 13.6595 7.9956 13.8241 8.00042C13.9886 8.00525 14.1466 8.05115 14.2744 8.13121C14.4021 8.21127 14.4927 8.32115 14.5324 8.44431L15.043 10.019C15.333 10.9135 16.5852 10.9495 16.9262 10.0732L18.9 5" stroke="white" stroke-width="2" stroke-linecap="round"/>
</svg>
