<svg width="20" height="20" viewBox="0 0 20 20" fill="none" xmlns="http://www.w3.org/2000/svg">
<path d="M18.6257 16.6667C19.2394 16.6667 19.7368 17.1641 19.7368 17.7778V17.7778C19.7368 19 18.75 20 17.5439 20H2.19298C1.61137 20 1.05357 19.7659 0.64231 19.3491C0.231046 18.9324 0 18.3671 0 17.7778V2.22222C0 1.63285 0.231046 1.06762 0.64231 0.650874C1.05357 0.234126 1.61137 0 2.19298 0H17.5439C18.75 0 19.7368 1 19.7368 2.22222V2.22222C19.7368 2.83587 19.2394 3.33333 18.6257 3.33333H9.86842C9.28681 3.33333 8.72901 3.56746 8.31775 3.98421C7.90648 4.40095 7.67544 4.96619 7.67544 5.55556V14.4444C7.67544 15.0338 7.90648 15.599 8.31775 16.0158C8.72901 16.4325 9.28681 16.6667 9.86842 16.6667H18.6257ZM9.86842 11.4444C9.86842 13.1013 11.2116 14.4444 12.8684 14.4444H17C18.6569 14.4444 20 13.1013 20 11.4444V8.55556C20 6.8987 18.6569 5.55556 17 5.55556H12.8684C11.2116 5.55556 9.86842 6.8987 9.86842 8.55556V11.4444ZM14.2544 11.6667C13.3443 11.6667 12.6096 10.9222 12.6096 10C12.6096 9.07778 13.3443 8.33333 14.2544 8.33333C15.1645 8.33333 15.8991 9.07778 15.8991 10C15.8991 10.9222 15.1645 11.6667 14.2544 11.6667Z" fill="black" fill-opacity="0.2"/>
</svg>
