<svg width="51" height="33" viewBox="0 0 51 33" fill="none" xmlns="http://www.w3.org/2000/svg">
<path fill-rule="evenodd" clip-rule="evenodd" d="M38.4388 13.4849C39.0438 13.4849 39.5343 12.9944 39.5343 12.3894V3.81842L41.4773 5.76142C41.9051 6.18923 42.5987 6.18923 43.0265 5.76142C43.4543 5.33361 43.4543 4.64 43.0265 4.21219L39.2135 0.3991C38.7856 -0.0287085 38.092 -0.0287085 37.6642 0.3991L33.8511 4.21219C33.4233 4.64 33.4233 5.33361 33.8511 5.76142C34.2789 6.18923 34.9726 6.18923 35.4004 5.76142L37.3434 3.81842V12.3894C37.3434 12.9944 37.8338 13.4849 38.4388 13.4849Z" fill="#56E264"/>
<path fill-rule="evenodd" clip-rule="evenodd" d="M3.31593 10.8082C2.80347 11.4776 2.59427 12.3802 2.59427 13.205V26.9112C2.59427 28.5676 3.03026 29.3653 3.52524 29.7867C4.05679 30.2391 4.90138 30.4727 6.15573 30.4727H44.84C46.9636 30.4727 47.6733 29.9506 47.9678 29.5271C48.3367 28.9965 48.4015 28.1991 48.4015 26.9112V13.205C48.4015 11.6296 47.812 10.8052 47.1621 10.3358C46.4534 9.82397 45.5386 9.6436 44.84 9.64358H41.5061C40.9011 9.64358 40.4106 9.15312 40.4106 8.54811C40.4106 7.9431 40.9011 7.45264 41.5061 7.45264H44.84C45.8348 7.45266 47.2485 7.69565 48.4449 8.55969C49.7001 9.46622 50.5924 10.9703 50.5924 13.205V26.9162C50.5924 28.0621 50.5924 29.5903 49.7666 30.7779C48.8651 32.0744 47.2463 32.6636 44.84 32.6636H6.15573C4.7112 32.6636 3.22733 32.4103 2.10512 31.455C0.946355 30.4687 0.40332 28.938 0.40332 26.9112V13.205C0.40332 12.0718 0.680976 10.6459 1.57618 9.47643C2.50958 8.25705 4.01152 7.45264 6.15573 7.45264H35.1689C35.7739 7.45264 36.2644 7.9431 36.2644 8.54811C36.2644 9.15312 35.7739 9.64358 35.1689 9.64358H6.15573C4.61672 9.64358 3.79019 10.1886 3.31593 10.8082Z" fill="#C1C1C1"/>
<path d="M13.084 15.564H16.5703C17.9284 15.564 18.9355 15.7668 19.5918 16.1724C20.2526 16.5734 20.583 17.2 20.583 18.0522C20.583 18.6128 20.4395 19.0913 20.1523 19.4878C19.8652 19.8843 19.487 20.1395 19.0176 20.2534V20.3218C19.6374 20.4858 20.0863 20.7593 20.3643 21.1421C20.6423 21.5249 20.7812 22.0216 20.7812 22.6323C20.7812 23.5392 20.4395 24.2547 19.7559 24.7788C19.0768 25.2983 18.1494 25.5581 16.9736 25.5581H13.084V15.564ZM15.7842 19.3989H16.5977C16.985 19.3989 17.2835 19.3192 17.4932 19.1597C17.7074 19.0002 17.8145 18.7632 17.8145 18.4487C17.8145 17.8882 17.3906 17.6079 16.543 17.6079H15.7842V19.3989ZM15.7842 21.3745V23.4731H16.7344C17.5775 23.4731 17.999 23.1177 17.999 22.4067C17.999 22.0741 17.8851 21.8188 17.6572 21.6411C17.4339 21.4634 17.1081 21.3745 16.6797 21.3745H15.7842ZM32.0332 25.5581H28.4922L24.8418 18.5171H24.7803C24.8669 19.6245 24.9102 20.4699 24.9102 21.0532V25.5581H22.5176V15.564H26.0449L29.6816 22.5093H29.7227C29.6589 21.5021 29.627 20.6932 29.627 20.0825V15.564H32.0332V25.5581ZM34.1934 25.5581V15.564H36.9072V25.5581H34.1934Z" fill="black"/>
</svg>
