<svg width="51" height="33" viewBox="0 0 51 33" fill="none" xmlns="http://www.w3.org/2000/svg">
<path d="M24.7178 25.085C23.5771 25.0329 22.4782 24.7777 21.4209 24.3193V21.7256C22.0251 22.0329 22.6813 22.2907 23.3896 22.499C24.098 22.7021 24.7204 22.8037 25.2568 22.8037C25.6995 22.8037 26.0225 22.7516 26.2256 22.6475C26.4339 22.5381 26.5381 22.3584 26.5381 22.1084C26.5381 21.9365 26.4626 21.7907 26.3115 21.6709C26.1657 21.5511 25.9183 21.4157 25.5693 21.2646C25.2256 21.1136 24.7594 20.9313 24.1709 20.7178C23.5094 20.473 22.9756 20.1995 22.5693 19.8975C22.1631 19.5902 21.8662 19.249 21.6787 18.874C21.4964 18.4938 21.4053 18.0225 21.4053 17.46C21.4053 16.6006 21.6813 15.9287 22.2334 15.4443C22.7855 14.96 23.6136 14.6605 24.7178 14.5459V13.4756H26.335V14.5303C27.3714 14.5876 28.4157 14.8428 29.4678 15.2959L28.5381 17.5225C27.4495 17.0329 26.4678 16.7881 25.5928 16.7881C25.1761 16.7881 24.8818 16.8402 24.71 16.9443C24.5433 17.0433 24.46 17.1917 24.46 17.3896C24.46 17.5615 24.5199 17.7048 24.6396 17.8193C24.7646 17.9287 24.9782 18.0537 25.2803 18.1943C25.5824 18.3298 26.0016 18.4886 26.5381 18.6709C27.6266 19.0563 28.4079 19.4964 28.8818 19.9912C29.3558 20.4808 29.5928 21.1136 29.5928 21.8896C29.5928 22.7646 29.3141 23.4756 28.7568 24.0225C28.2048 24.5693 27.3975 24.9079 26.335 25.0381V26.5459H24.7178V25.085Z" fill="black"/>
<path fill-rule="evenodd" clip-rule="evenodd" d="M38.4388 13.7734C39.0438 13.7734 39.5343 13.283 39.5343 12.678V4.107L41.4773 6.05C41.9051 6.4778 42.5987 6.4778 43.0265 6.05C43.4543 5.62219 43.4543 4.92857 43.0265 4.50076L39.2135 0.687675C38.7856 0.259866 38.092 0.259866 37.6642 0.687675L33.8511 4.50076C33.4233 4.92857 33.4233 5.62219 33.8511 6.05C34.2789 6.4778 34.9726 6.4778 35.4004 6.05L37.3434 4.107V12.678C37.3434 13.283 37.8338 13.7734 38.4388 13.7734Z" fill="#56E264"/>
<path fill-rule="evenodd" clip-rule="evenodd" d="M3.31593 11.0967C2.80347 11.7662 2.59427 12.6688 2.59427 13.4936V27.1998C2.59427 28.8561 3.03026 29.6539 3.52524 30.0752C4.05679 30.5277 4.90138 30.7612 6.15573 30.7612H44.84C46.9636 30.7612 47.6733 30.2391 47.9678 29.8157C48.3367 29.2851 48.4015 28.4876 48.4015 27.1998V13.4936C48.4015 11.9181 47.812 11.0938 47.1621 10.6244C46.4534 10.1125 45.5386 9.93217 44.84 9.93216H41.5061C40.9011 9.93216 40.4106 9.4417 40.4106 8.83668C40.4106 8.23167 40.9011 7.74121 41.5061 7.74121H44.84C45.8348 7.74123 47.2485 7.98423 48.4449 8.84826C49.7001 9.75479 50.5924 11.2589 50.5924 13.4936V27.2048C50.5924 28.3507 50.5924 29.8789 49.7666 31.0665C48.8651 32.3629 47.2463 32.9522 44.84 32.9522H6.15573C4.7112 32.9522 3.22733 32.6988 2.10512 31.7436C0.946355 30.7573 0.40332 29.2266 0.40332 27.1998V13.4936C0.40332 12.3603 0.680976 10.9345 1.57618 9.76501C2.50958 8.54562 4.01152 7.74121 6.15573 7.74121H35.1689C35.7739 7.74121 36.2644 8.23167 36.2644 8.83668C36.2644 9.4417 35.7739 9.93216 35.1689 9.93216H6.15573C4.61672 9.93216 3.79019 10.4772 3.31593 11.0967Z" fill="#C1C1C1"/>
</svg>
