<svg width="51" height="34" viewBox="0 0 51 34" fill="none" xmlns="http://www.w3.org/2000/svg">
<path fill-rule="evenodd" clip-rule="evenodd" d="M38.4388 14.3789C39.0438 14.3789 39.5343 13.8884 39.5343 13.2834V4.71246L41.4773 6.65546C41.9051 7.08327 42.5987 7.08327 43.0265 6.65546C43.4543 6.22766 43.4543 5.53404 43.0265 5.10623L39.2135 1.29314C38.7856 0.865334 38.092 0.865334 37.6642 1.29314L33.8511 5.10623C33.4233 5.53404 33.4233 6.22766 33.8511 6.65546C34.2789 7.08327 34.9726 7.08327 35.4004 6.65546L37.3434 4.71246V13.2834C37.3434 13.8884 37.8338 14.3789 38.4388 14.3789Z" fill="#56E264"/>
<path fill-rule="evenodd" clip-rule="evenodd" d="M3.31593 11.7022C2.80347 12.3717 2.59427 13.2743 2.59427 14.0991V27.8052C2.59427 29.4616 3.03026 30.2594 3.52524 30.6807C4.05679 31.1332 4.90138 31.3667 6.15573 31.3667H44.84C46.9636 31.3667 47.6733 30.8446 47.9678 30.4211C48.3367 29.8906 48.4015 29.0931 48.4015 27.8052V14.0991C48.4015 12.5236 47.812 11.6993 47.1621 11.2299C46.4534 10.718 45.5386 10.5376 44.84 10.5376H41.5061C40.9011 10.5376 40.4106 10.0472 40.4106 9.44215C40.4106 8.83714 40.9011 8.34668 41.5061 8.34668H44.84C45.8348 8.3467 47.2485 8.5897 48.4449 9.45373C49.7001 10.3603 50.5924 11.8644 50.5924 14.0991V27.8103C50.5924 28.9561 50.5924 30.4844 49.7666 31.672C48.8651 32.9684 47.2463 33.5576 44.84 33.5576H6.15573C4.7112 33.5576 3.22733 33.3043 2.10512 32.3491C0.946355 31.3628 0.40332 29.8321 0.40332 27.8052V14.0991C0.40332 12.9658 0.680976 11.54 1.57618 10.3705C2.50958 9.15109 4.01152 8.34668 6.15573 8.34668H35.1689C35.7739 8.34668 36.2644 8.83714 36.2644 9.44215C36.2644 10.0472 35.7739 10.5376 35.1689 10.5376H6.15573C4.61672 10.5376 3.79019 11.0826 3.31593 11.7022Z" fill="#C1C1C1"/>
<path d="M15.5186 26.4521V16.458H18.2188V24.2715H22.0674V26.4521H15.5186ZM28.1172 18.5293C27.4746 18.5293 26.9733 18.7936 26.6133 19.3223C26.2533 19.8464 26.0732 20.571 26.0732 21.4961C26.0732 23.4193 26.8047 24.3809 28.2676 24.3809C28.7096 24.3809 29.138 24.3193 29.5527 24.1963C29.9674 24.0732 30.3844 23.9251 30.8037 23.752V26.0352C29.9697 26.4043 29.0264 26.5889 27.9736 26.5889C26.4652 26.5889 25.3076 26.1514 24.501 25.2764C23.6989 24.4014 23.2979 23.1367 23.2979 21.4824C23.2979 20.4479 23.4915 19.5387 23.8789 18.7549C24.2708 17.971 24.8314 17.3695 25.5605 16.9502C26.2943 16.5264 27.1556 16.3145 28.1445 16.3145C29.2246 16.3145 30.2568 16.5492 31.2412 17.0186L30.4141 19.1445C30.0449 18.9714 29.6758 18.8255 29.3066 18.707C28.9375 18.5885 28.541 18.5293 28.1172 18.5293ZM32.7588 26.4521V16.458H35.4727V26.4521H32.7588Z" fill="black"/>
</svg>
