<svg width="51" height="34" viewBox="0 0 51 34" fill="none" xmlns="http://www.w3.org/2000/svg">
<path fill-rule="evenodd" clip-rule="evenodd" d="M38.4388 14.0762C39.0438 14.0762 39.5343 13.5857 39.5343 12.9807V4.40973L41.4773 6.35273C41.9051 6.78054 42.5987 6.78054 43.0265 6.35273C43.4543 5.92492 43.4543 5.2313 43.0265 4.8035L39.2135 0.990409C38.7856 0.5626 38.092 0.5626 37.6642 0.990409L33.8511 4.8035C33.4233 5.2313 33.4233 5.92492 33.8511 6.35273C34.2789 6.78054 34.9726 6.78054 35.4004 6.35273L37.3434 4.40973V12.9807C37.3434 13.5857 37.8338 14.0762 38.4388 14.0762Z" fill="#56E264"/>
<path fill-rule="evenodd" clip-rule="evenodd" d="M3.31593 11.3995C2.80347 12.0689 2.59427 12.9716 2.59427 13.7964V27.5025C2.59427 29.1589 3.03026 29.9566 3.52524 30.378C4.05679 30.8304 4.90138 31.064 6.15573 31.064H44.84C46.9636 31.064 47.6733 30.5419 47.9678 30.1184C48.3367 29.5879 48.4015 28.7904 48.4015 27.5025V13.7964C48.4015 12.2209 47.812 11.3965 47.1621 10.9272C46.4534 10.4153 45.5386 10.2349 44.84 10.2349H41.5061C40.9011 10.2349 40.4106 9.74443 40.4106 9.13942C40.4106 8.53441 40.9011 8.04395 41.5061 8.04395H44.84C45.8348 8.04397 47.2485 8.28696 48.4449 9.151C49.7001 10.0575 50.5924 11.5616 50.5924 13.7964V27.5075C50.5924 28.6534 50.5924 30.1817 49.7666 31.3693C48.8651 32.6657 47.2463 33.2549 44.84 33.2549H6.15573C4.7112 33.2549 3.22733 33.0016 2.10512 32.0464C0.946355 31.06 0.40332 29.5293 0.40332 27.5025V13.7964C0.40332 12.6631 0.680976 11.2372 1.57618 10.0677C2.50958 8.84836 4.01152 8.04395 6.15573 8.04395H35.1689C35.7739 8.04395 36.2644 8.53441 36.2644 9.13942C36.2644 9.74443 35.7739 10.2349 35.1689 10.2349H6.15573C4.61672 10.2349 3.79019 10.7799 3.31593 11.3995Z" fill="#C1C1C1"/>
<path d="M14.4521 26.1494L12.4082 18.9512H12.3467C12.4424 20.1771 12.4902 21.1296 12.4902 21.8086V26.1494H10.0977V16.1553H13.6934L15.7783 23.251H15.833L17.877 16.1553H21.4795V26.1494H18.998V21.7676C18.998 21.5397 19.0003 21.2868 19.0049 21.0088C19.014 20.7308 19.0459 20.0495 19.1006 18.9648H19.0391L17.0225 26.1494H14.4521ZM34.4268 26.1494H31.2344L30.2773 21.7949C30.2318 21.6126 30.1589 21.2503 30.0586 20.708C29.9629 20.1657 29.8923 19.7122 29.8467 19.3477C29.8102 19.6439 29.751 20.013 29.6689 20.4551C29.5869 20.8926 29.5049 21.2959 29.4229 21.665C29.3454 22.0342 29.015 23.529 28.4316 26.1494H25.2393L22.7646 16.1553H25.3691L26.4561 21.166C26.7021 22.2734 26.8708 23.1553 26.9619 23.8115C27.0212 23.3467 27.126 22.7155 27.2764 21.918C27.4313 21.1204 27.5749 20.4596 27.707 19.9355L28.5889 16.1553H31.0908L31.9453 19.9355C32.0911 20.5417 32.2393 21.2412 32.3896 22.0342C32.54 22.8271 32.6403 23.4196 32.6904 23.8115C32.7497 23.3057 32.9115 22.4284 33.1758 21.1797L34.2832 16.1553H36.8877L34.4268 26.1494ZM38.1797 26.1494V16.1553H40.8936V26.1494H38.1797Z" fill="black"/>
</svg>
