<svg width="40" height="40" viewBox="0 0 40 40" fill="none" xmlns="http://www.w3.org/2000/svg">
<rect width="40" height="40" rx="20" fill="#D1FADF"/>
<path d="M23.3327 24.9993L25.8327 22.4993M25.8327 22.4993L28.3327 24.9993M25.8327 22.4993V27.4993M28.3327 18.3327H11.666M28.3327 19.9993V16.8327C28.3327 15.8993 28.3327 15.4326 28.151 15.076C27.9912 14.7624 27.7363 14.5075 27.4227 14.3477C27.0661 14.166 26.5994 14.166 25.666 14.166H14.3327C13.3993 14.166 12.9326 14.166 12.576 14.3477C12.2624 14.5075 12.0075 14.7624 11.8477 15.076C11.666 15.4326 11.666 15.8993 11.666 16.8327V23.166C11.666 24.0994 11.666 24.5661 11.8477 24.9227C12.0075 25.2363 12.2624 25.4912 12.576 25.651C12.9326 25.8327 13.3993 25.8327 14.3327 25.8327H19.9993" stroke="#039855" stroke-width="2" stroke-linecap="round" stroke-linejoin="round"/>
</svg>
