<svg width="19" height="16" viewBox="0 0 19 16" fill="none" xmlns="http://www.w3.org/2000/svg">
<path d="M12.8327 11.9993L15.3327 9.49935M15.3327 9.49935L17.8327 11.9993M15.3327 9.49935V14.4993M17.8327 5.33268H1.16602M17.8327 6.99935V3.83268C17.8327 2.89926 17.8327 2.43255 17.651 2.07603C17.4912 1.76243 17.2363 1.50746 16.9227 1.34767C16.5661 1.16602 16.0994 1.16602 15.166 1.16602H3.83268C2.89926 1.16602 2.43255 1.16602 2.07603 1.34767C1.76243 1.50746 1.50746 1.76243 1.34767 2.07603C1.16602 2.43255 1.16602 2.89926 1.16602 3.83268V10.166C1.16602 11.0994 1.16602 11.5661 1.34767 11.9227C1.50746 12.2363 1.76243 12.4912 2.07603 12.651C2.43255 12.8327 2.89926 12.8327 3.83268 12.8327H9.49935" stroke="white" stroke-width="2" stroke-linecap="round" stroke-linejoin="round"/>
</svg>
