<svg width="36" height="36" viewBox="0 0 36 36" fill="none" xmlns="http://www.w3.org/2000/svg">
<path d="M25.0527 13.9999C24.5327 13.4799 23.6927 13.4799 23.1727 13.9999L17.9993 19.1732L12.826 13.9999C12.306 13.4799 11.466 13.4799 10.946 13.9999C10.426 14.5199 10.426 15.3599 10.946 15.8799L17.066 21.9999C17.586 22.5199 18.426 22.5199 18.946 21.9999L25.066 15.8799C25.5727 15.3732 25.5727 14.5199 25.0527 13.9999Z" fill="#969696"/>
<path fill-rule="evenodd" clip-rule="evenodd" d="M33 18C33 26.295 26.295 33 18 33C9.705 33 3 26.295 3 18C3 9.705 9.705 3 18 3C26.295 3 33 9.705 33 18ZM30 18C30 11.385 24.615 6 18 6C11.385 6 6 11.385 6 18C6 24.615 11.385 30 18 30C24.615 30 30 24.615 30 18Z" fill="#969696"/>
</svg>
