<svg width="29" height="29" viewBox="0 0 29 29" fill="none" xmlns="http://www.w3.org/2000/svg">
<rect width="29" height="29" rx="8" fill="#EDFBFB"/>
<rect x="0.5" y="0.5" width="28" height="28" rx="7.5" stroke="#76D1BF" stroke-opacity="0.2"/>
<path d="M16.7519 22.4257L14.2968 23.5763L11.8422 22.4257L12.2747 20.2064H16.197L16.7519 22.4257Z" fill="#DBA87B"/>
<path d="M17.922 15.427C17.8041 16.8661 17.5246 18.5551 17.0012 19.4985C16.6487 20.1336 15.2103 21.5693 14.2367 21.5693C13.2624 21.5693 11.8931 20.1842 11.4537 19.4581C11.0149 18.732 10.6928 17.1529 10.5507 15.427C10.3195 12.6165 12.2007 11.3714 14.2361 11.3714C16.272 11.3714 18.1515 12.6165 17.922 15.427Z" fill="#E4B58B"/>
<path d="M18.6415 16.61C18.5897 16.923 18.3154 17.4721 18.1975 17.6696C18.1181 17.8027 17.7052 18.0691 17.5223 18.0526C17.3388 18.0361 17.409 17.5467 17.3411 17.3805C17.2733 17.2138 17.2457 16.8627 17.2543 16.482C17.2687 15.8629 17.6488 15.6233 18.0318 15.6586C18.4143 15.6933 18.7427 15.9989 18.6415 16.61Z" fill="#E4B58B"/>
<path d="M9.84573 16.61C9.89749 16.923 10.1718 17.4721 10.2897 17.6696C10.3691 17.8027 10.782 18.0691 10.9643 18.0526C11.1478 18.0361 11.0782 17.5467 11.1455 17.3805C11.2139 17.2138 11.241 16.8627 11.2323 16.482C11.2179 15.8629 10.8378 15.6233 10.4548 15.6586C10.0723 15.6933 9.74451 15.9989 9.84573 16.61Z" fill="#E4B58B"/>
<path d="M10.8543 15.3888C10.8543 15.3888 11.124 14.9928 11.2874 14.9387C11.6744 14.8124 12.341 14.611 12.4698 14.6104C12.6929 14.6098 13.0581 14.7623 13.0581 14.7623L12.9276 15.0389C12.9276 15.0389 12.6418 14.8733 12.3853 14.8761C12.2501 14.8773 11.7883 14.9319 11.3524 15.0508C11.1954 15.0929 10.8543 15.3888 10.8543 15.3888Z" fill="#331B19"/>
<path d="M17.5989 15.4122C17.5989 15.4122 17.3413 15.0082 17.1791 14.9501C16.7961 14.8124 16.1364 14.5911 16.0076 14.5871C15.7844 14.5808 15.4146 14.7219 15.4146 14.7219L15.5371 15.0019C15.5371 15.0019 15.8281 14.8449 16.0847 14.8551C16.2198 14.8602 16.6799 14.9279 17.1118 15.0594C17.2671 15.1066 17.5989 15.4122 17.5989 15.4122Z" fill="#331B19"/>
<path d="M10.5308 15.6552L10.889 17.0061L11.1726 16.9253C11.1726 16.9253 10.5112 14.5768 10.8522 13.9344C11.1927 13.2919 11.4969 13.0108 11.8828 12.9704C12.2682 12.9306 13.1406 13.2919 13.8911 13.2515C14.6417 13.2111 15.6159 12.6296 15.9811 12.6296C16.3463 12.6296 17.2188 13.2111 17.3401 13.6129C17.462 14.0152 17.462 16.4706 17.462 16.4706L17.5995 16.6647L17.9405 15.6552L18.3374 15.7565C18.3374 15.7565 18.6594 12.4691 18.0504 11.7066C17.4407 10.9429 15.6763 10 13.8302 10C12.2745 10 10.3536 11.405 10.0085 12.2887C9.59216 13.3557 10.0362 15.8435 10.0362 15.8435L10.5308 15.6552Z" fill="#331B19"/>
<path d="M17.1916 27.9994V22.4734L14.1591 23.4027L11.2352 22.4734V27.9994H17.1916Z" fill="#E7E7E7"/>
<path d="M14.2448 23.4027C14.2448 23.4027 13.4166 23.6867 13.4166 23.9433C13.4166 24.1994 13.8698 24.8629 13.8698 24.8629H14.698C14.698 24.8629 15.0735 24.2016 15.0735 23.9433C15.0735 23.6855 14.2448 23.4027 14.2448 23.4027Z" fill="#00B5CF"/>
<path d="M14.9904 27.9994L14.6983 24.8629H13.8701L13.5584 27.9994H14.9904Z" fill="#00B5CF"/>
<path d="M17.9221 22.2379L15.2916 23.9507L14.2621 23.405L16.5148 21.1453L17.9221 22.2379Z" fill="white"/>
<path d="M10.5977 22.2248L13.1586 23.9507L14.2617 23.405L12.0004 21.1368L10.5977 22.2248Z" fill="white"/>
<path d="M21.5069 27.9994C21.2722 25.6635 20.9634 23.4169 20.6218 23.0163C19.869 22.1337 16.841 21.3985 16.841 21.3985L15.884 28H21.5069V27.9994Z" fill="#272127"/>
<path d="M17.1387 27.9994L18.749 24.8241L17.4924 24.1703L18.4126 23.6218L16.842 21.3985L15.9057 27.9994H17.1387Z" fill="#352E35"/>
<path d="M12.6229 27.9994L11.6659 21.3985C11.6659 21.3985 8.6385 22.1337 7.8851 23.0163C7.54348 23.4169 7.23465 25.6635 7 27.9994H12.6229Z" fill="#272127"/>
<path d="M11.3689 27.9994H12.602L11.6663 21.3985L10.095 23.6218L11.0152 24.1703L9.75861 24.8241L11.3689 27.9994Z" fill="#352E35"/>
<path d="M13.7893 19.4854C13.7893 19.4854 14.3586 19.4114 14.4817 19.4854C14.6059 19.5588 14.8038 19.6322 14.8038 19.6322" fill="#DBA87B"/>
<path d="M16.9934 15.7434C16.9934 15.7434 16.9572 15.9499 16.7697 16.1258C16.6282 16.2578 15.7655 16.3465 15.6735 16.3061C15.5378 16.2458 15.3607 15.9579 15.3607 15.9579C15.3607 15.9579 15.6649 15.5442 16.0399 15.5442C16.4137 15.5442 16.9934 15.7434 16.9934 15.7434Z" fill="white"/>
<path d="M16.039 15.6257C16.3093 15.6257 16.6866 15.7293 16.8752 15.7868C16.9178 15.8004 16.8959 15.9467 16.824 16.0684C16.9782 15.9285 16.9931 15.7441 16.9931 15.7441C16.9931 15.7441 16.4134 15.5449 16.039 15.5449C15.664 15.5449 15.3598 15.9586 15.3598 15.9586C15.3598 15.9586 15.3719 15.999 15.4041 16.0252C15.4708 15.941 15.7141 15.6257 16.039 15.6257Z" fill="#432918"/>
<path d="M16.4517 15.9203C16.4517 16.1286 16.2821 16.2965 16.0722 16.2965C15.8617 16.2965 15.692 16.1286 15.692 15.9203C15.692 15.7126 15.8617 15.5442 16.0722 15.5442C16.2821 15.5442 16.4517 15.7126 16.4517 15.9203Z" fill="#432918"/>
<path d="M16.3978 15.9204C16.3978 16.0797 15.9463 15.6324 16.1068 15.6324C16.2678 15.633 16.3978 15.7616 16.3978 15.9204Z" fill="white"/>
<path d="M11.4336 15.7434C11.4336 15.7434 11.4698 15.9499 11.6573 16.1258C11.7988 16.2578 12.6615 16.3465 12.7529 16.3061C12.8886 16.2458 13.0658 15.9579 13.0658 15.9579C13.0658 15.9579 12.7615 15.5442 12.3871 15.5442C12.0133 15.5442 11.4336 15.7434 11.4336 15.7434Z" fill="white"/>
<path d="M12.3874 15.6257C12.1171 15.6257 11.7398 15.7293 11.5512 15.7868C11.5081 15.8004 11.5305 15.9467 11.6024 16.0684C11.4482 15.9285 11.4333 15.7441 11.4333 15.7441C11.4333 15.7441 12.013 15.5449 12.3874 15.5449C12.7618 15.5449 13.066 15.9586 13.066 15.9586C13.066 15.9586 13.0545 15.999 13.0223 16.0252C12.955 15.941 12.7123 15.6257 12.3874 15.6257Z" fill="#432918"/>
<path d="M11.9738 15.9203C11.9738 16.1286 12.144 16.2965 12.354 16.2965C12.5639 16.2965 12.7341 16.1286 12.7341 15.9203C12.7341 15.7126 12.5639 15.5442 12.354 15.5442C12.1446 15.5442 11.9738 15.7126 11.9738 15.9203Z" fill="#432918"/>
<path d="M12.028 15.9204C12.028 16.0797 12.4795 15.6324 12.319 15.6324C12.1586 15.633 12.028 15.7616 12.028 15.9204Z" fill="white"/>
<path d="M14.2469 17.6167L13.9059 17.3492L14.2469 16.5622V17.6167Z" fill="#E09D72"/>
<path d="M13.2777 19.0831L13.15 18.9602L15.4441 18.8379L15.0323 19.0831H13.2777Z" fill="#E09D72"/>
</svg>
