<svg width="29" height="29" viewBox="0 0 29 29" fill="none" xmlns="http://www.w3.org/2000/svg">
<rect width="29" height="29" rx="8" fill="#EDFBFB"/>
<rect x="0.5" y="0.5" width="28" height="28" rx="7.5" stroke="#76D1BF" stroke-opacity="0.2"/>
<path d="M16.752 22.4256L14.2969 23.5762L11.8423 22.4256L12.2748 20.2064H16.1971L16.752 22.4256Z" fill="#DBA87B"/>
<path d="M17.9218 15.427C17.8039 16.8661 17.5244 18.555 17.001 19.4985C16.6485 20.1336 15.2101 21.5693 14.2365 21.5693C13.2622 21.5693 11.8929 20.1842 11.4535 19.4581C11.0147 18.732 10.6926 17.1529 10.5506 15.427C10.3194 12.6165 12.2006 11.3714 14.2359 11.3714C16.2718 11.3714 18.1513 12.6165 17.9218 15.427Z" fill="#E4B58B"/>
<path d="M18.6416 16.61C18.5899 16.923 18.3155 17.4721 18.1977 17.6696C18.1183 17.8027 17.7054 18.0691 17.5225 18.0526C17.339 18.0361 17.4092 17.5467 17.3413 17.3805C17.2734 17.2138 17.2458 16.8627 17.2545 16.482C17.2688 15.8629 17.649 15.6233 18.032 15.6586C18.4145 15.6933 18.7429 15.9989 18.6416 16.61Z" fill="#E4B58B"/>
<path d="M9.84573 16.61C9.89749 16.923 10.1718 17.4721 10.2897 17.6696C10.3691 17.8027 10.782 18.0691 10.9643 18.0526C11.1478 18.0361 11.0782 17.5467 11.1455 17.3805C11.2139 17.2138 11.241 16.8627 11.2323 16.482C11.2179 15.8629 10.8378 15.6233 10.4548 15.6586C10.0723 15.6933 9.74451 15.9989 9.84573 16.61Z" fill="#E4B58B"/>
<path d="M10.8545 15.3888C10.8545 15.3888 11.1242 14.9928 11.2876 14.9387C11.6746 14.8124 12.3412 14.6109 12.47 14.6104C12.6931 14.6098 13.0583 14.7623 13.0583 14.7623L12.9278 15.0388C12.9278 15.0388 12.6419 14.8733 12.3854 14.8761C12.2503 14.8772 11.7885 14.9319 11.3525 15.0508C11.1955 15.0929 10.8545 15.3888 10.8545 15.3888Z" fill="#331B19"/>
<path d="M17.5988 15.4122C17.5988 15.4122 17.3412 15.0081 17.179 14.9501C16.796 14.8124 16.1363 14.591 16.0075 14.5871C15.7843 14.5808 15.4146 14.7219 15.4146 14.7219L15.537 15.0019C15.537 15.0019 15.8281 14.8448 16.0846 14.8551C16.2197 14.8602 16.6798 14.9279 17.1117 15.0594C17.267 15.1066 17.5988 15.4122 17.5988 15.4122Z" fill="#331B19"/>
<path d="M10.5309 15.6552L10.8892 17.0061L11.1728 16.9253C11.1728 16.9253 10.5114 14.5768 10.8524 13.9344C11.1929 13.2919 11.4971 13.0108 11.883 12.9704C12.2684 12.9306 13.1408 13.2919 13.8913 13.2515C14.6419 13.2111 15.6161 12.6296 15.9813 12.6296C16.3465 12.6296 17.2189 13.2111 17.3403 13.6129C17.4622 14.0152 17.4622 16.4706 17.4622 16.4706L17.5997 16.6647L17.9407 15.6552L18.3375 15.7565C18.3375 15.7565 18.6596 12.4691 18.0506 11.7066C17.4409 10.9429 15.6765 10 13.8304 10C12.2747 10 10.3538 11.405 10.0087 12.2887C9.59235 13.3557 10.0363 15.8435 10.0363 15.8435L10.5309 15.6552Z" fill="#331B19"/>
<path d="M17.1918 27.9994V22.4734L14.1592 23.4027L11.2354 22.4734V27.9994H17.1918Z" fill="#E7E7E7"/>
<path d="M14.2447 23.4027C14.2447 23.4027 13.4165 23.6867 13.4165 23.9433C13.4165 24.1994 13.8697 24.8629 13.8697 24.8629H14.6979C14.6979 24.8629 15.0734 24.2016 15.0734 23.9433C15.0734 23.6855 14.2447 23.4027 14.2447 23.4027Z" fill="#00B5CF"/>
<path d="M14.9906 27.9994L14.6985 24.8629H13.8703L13.5586 27.9994H14.9906Z" fill="#00B5CF"/>
<path d="M17.9222 22.2379L15.2917 23.9507L14.2622 23.405L16.5149 21.1453L17.9222 22.2379Z" fill="white"/>
<path d="M10.5977 22.2248L13.1586 23.9507L14.2617 23.405L12.0004 21.1368L10.5977 22.2248Z" fill="white"/>
<path d="M21.5067 27.9994C21.272 25.6635 20.9632 23.4169 20.6216 23.0163C19.8688 22.1337 16.8408 21.3985 16.8408 21.3985L15.8838 28H21.5067V27.9994Z" fill="#272127"/>
<path d="M17.1388 27.9994L18.7491 24.8241L17.4925 24.1703L18.4127 23.6218L16.842 21.3985L15.9058 27.9994H17.1388Z" fill="#352E35"/>
<path d="M12.6229 27.9994L11.6659 21.3985C11.6659 21.3985 8.6385 22.1337 7.8851 23.0163C7.54348 23.4169 7.23465 25.6635 7 27.9994H12.6229Z" fill="#272127"/>
<path d="M11.3691 27.9994H12.6022L11.6664 21.3985L10.0952 23.6218L11.0154 24.1703L9.75879 24.8241L11.3691 27.9994Z" fill="#352E35"/>
<path d="M13.7891 19.4854C13.7891 19.4854 14.3584 19.4114 14.4815 19.4854C14.6057 19.5588 14.8036 19.6322 14.8036 19.6322" fill="#DBA87B"/>
<path d="M16.9931 15.7434C16.9931 15.7434 16.9569 15.9499 16.7694 16.1258C16.6279 16.2578 15.7652 16.3465 15.6732 16.3061C15.5375 16.2458 15.3604 15.9579 15.3604 15.9579C15.3604 15.9579 15.6646 15.5442 16.0396 15.5442C16.4134 15.5442 16.9931 15.7434 16.9931 15.7434Z" fill="white"/>
<path d="M16.0386 15.6257C16.3089 15.6257 16.6862 15.7293 16.8748 15.7868C16.9174 15.8004 16.8955 15.9467 16.8236 16.0684C16.9777 15.9285 16.9927 15.7441 16.9927 15.7441C16.9927 15.7441 16.413 15.5449 16.0386 15.5449C15.6636 15.5449 15.3594 15.9586 15.3594 15.9586C15.3594 15.9586 15.3715 15.999 15.4037 16.0252C15.4704 15.941 15.7136 15.6257 16.0386 15.6257Z" fill="#432918"/>
<path d="M16.4516 15.9203C16.4516 16.1286 16.282 16.2965 16.072 16.2965C15.8616 16.2965 15.6919 16.1286 15.6919 15.9203C15.6919 15.7126 15.8616 15.5442 16.072 15.5442C16.282 15.5442 16.4516 15.7126 16.4516 15.9203Z" fill="#432918"/>
<path d="M16.3978 15.9203C16.3978 16.0797 15.9463 15.6324 16.1068 15.6324C16.2678 15.633 16.3978 15.7616 16.3978 15.9203Z" fill="white"/>
<path d="M11.4336 15.7434C11.4336 15.7434 11.4698 15.9499 11.6573 16.1258C11.7988 16.2578 12.6615 16.3465 12.7529 16.3061C12.8886 16.2458 13.0658 15.9579 13.0658 15.9579C13.0658 15.9579 12.7615 15.5442 12.3871 15.5442C12.0133 15.5442 11.4336 15.7434 11.4336 15.7434Z" fill="white"/>
<path d="M12.3872 15.6257C12.1169 15.6257 11.7396 15.7293 11.551 15.7868C11.5079 15.8004 11.5303 15.9467 11.6022 16.0684C11.4481 15.9285 11.4331 15.7441 11.4331 15.7441C11.4331 15.7441 12.0128 15.5449 12.3872 15.5449C12.7616 15.5449 13.0659 15.9586 13.0659 15.9586C13.0659 15.9586 13.0544 15.999 13.0221 16.0252C12.9549 15.941 12.7122 15.6257 12.3872 15.6257Z" fill="#432918"/>
<path d="M11.9736 15.9203C11.9736 16.1286 12.1439 16.2965 12.3538 16.2965C12.5637 16.2965 12.7339 16.1286 12.7339 15.9203C12.7339 15.7126 12.5637 15.5442 12.3538 15.5442C12.1444 15.5442 11.9736 15.7126 11.9736 15.9203Z" fill="#432918"/>
<path d="M12.0278 15.9203C12.0278 16.0797 12.4793 15.6324 12.3188 15.6324C12.1584 15.633 12.0278 15.7616 12.0278 15.9203Z" fill="white"/>
<path d="M14.2468 17.6166L13.9058 17.3492L14.2468 16.5622V17.6166Z" fill="#E09D72"/>
<path d="M13.2776 19.0831L13.1499 18.9602L15.444 18.8378L15.0323 19.0831H13.2776Z" fill="#E09D72"/>
</svg>
