<svg width="11" height="901" viewBox="0 0 11 901" fill="none" xmlns="http://www.w3.org/2000/svg">
<path d="M10.6455 -2.33103L10.6455 -2.33594L5.75354 -2.33594L5.75354 -2.33103L5.75354 2.56584L5.75354 2.57075L10.6455 2.57075L10.6455 2.56584L10.6455 -2.33103Z" fill="#630AFF"/>
<path d="M5.42969 7.78673L5.42969 2.89478L0.527906 2.89478L0.527906 7.78673L5.42969 7.78673Z" fill="#630AFF"/>
<path d="M10.6455 8.1106L5.75354 8.1106L5.75354 13.0124L10.6455 13.0124L10.6455 8.1106Z" fill="#630AFF"/>
<path d="M5.42969 18.2281L5.42969 13.3362L0.527906 13.3362L0.527906 18.2281L5.42969 18.2281Z" fill="#630AFF"/>
<path d="M10.6455 18.5569L10.6455 18.552L5.75354 18.552L5.75354 18.5569L5.75354 23.4538L5.75354 23.4587L10.6455 23.4587L10.6455 23.4538L10.6455 18.5569Z" fill="#630AFF"/>
<path d="M5.42969 28.6744L5.42969 23.7825L0.527906 23.7825L0.527906 28.6744L5.42969 28.6744Z" fill="#630AFF"/>
<path d="M10.6455 28.9983L10.6455 28.9934L5.75354 28.9934L5.75354 28.9983L5.75354 33.8952L5.75354 33.9001L10.6455 33.9001L10.6455 33.8952L10.6455 28.9983Z" fill="#630AFF"/>
<path d="M5.42969 39.1159L5.42969 34.2239L0.527906 34.2239L0.527906 39.1159L5.42969 39.1159Z" fill="#630AFF"/>
<path d="M10.6455 39.4446L10.6455 39.4397L5.75354 39.4397L5.75354 39.4446L5.75354 44.3415L5.75354 44.3464L10.6455 44.3464L10.6455 44.3415L10.6455 39.4446Z" fill="#630AFF"/>
<path d="M5.42969 49.5621L5.42969 44.6702L0.527906 44.6702L0.527906 49.5621L5.42969 49.5621Z" fill="#630AFF"/>
<path d="M10.6455 49.886L10.6455 49.8811L5.75354 49.8811L5.75354 49.886L5.75354 54.7829L5.75354 54.7878L10.6455 54.7878L10.6455 54.7829L10.6455 49.886Z" fill="#630AFF"/>
<path d="M5.42969 60.0038L5.42969 55.1118L0.527906 55.1118L0.527906 60.0038L5.42969 60.0038Z" fill="#630AFF"/>
<path d="M10.6455 60.3325L10.6455 60.3276L5.75354 60.3276L5.75354 60.3325L5.75354 65.2294L5.75354 65.2343L10.6455 65.2343L10.6455 65.2294L10.6455 60.3325Z" fill="#630AFF"/>
<path d="M5.42969 70.4452L5.42969 65.5532L0.527906 65.5532L0.527906 70.4452L5.42969 70.4452Z" fill="#630AFF"/>
<path d="M10.6455 70.7737L10.6455 70.7688L5.75354 70.7688L5.75354 70.7737L5.75354 75.6706L5.75354 75.6755L10.6455 75.6755L10.6455 75.6706L10.6455 70.7737Z" fill="#630AFF"/>
<path d="M5.42969 80.8915L5.42969 75.9995L0.527906 75.9995L0.527906 80.8915L5.42969 80.8915Z" fill="#630AFF"/>
<path d="M10.6455 81.2202L10.6455 81.2153L5.75354 81.2153L5.75354 81.2202L5.75354 86.1171L5.75354 86.122L10.6455 86.122L10.6455 86.1171L10.6455 81.2202Z" fill="#630AFF"/>
<path d="M5.42969 91.3329L5.42969 86.4409L0.527906 86.4409L0.527906 91.3329L5.42969 91.3329Z" fill="#630AFF"/>
<path d="M10.6455 91.6616L10.6455 91.6567L5.75354 91.6567L5.75354 91.6616L5.75354 96.5585L5.75354 96.5634L10.6455 96.5634L10.6455 96.5585L10.6455 91.6616Z" fill="#630AFF"/>
<path d="M5.42969 101.779L5.42969 96.8872L0.527906 96.8872L0.527906 101.779L5.42969 101.779Z" fill="#630AFF"/>
<path d="M10.6455 102.103L5.75354 102.103L5.75354 107.005L10.6455 107.005L10.6455 102.103Z" fill="#630AFF"/>
<path d="M5.42969 112.221L5.42969 107.329L0.527906 107.329L0.527906 112.221L5.42969 112.221Z" fill="#630AFF"/>
<path d="M10.6455 112.549L10.6455 112.544L5.75354 112.544L5.75354 112.549L5.75354 117.446L5.75354 117.451L10.6455 117.451L10.6455 117.446L10.6455 112.549Z" fill="#630AFF"/>
<path d="M5.42969 122.667L5.42969 117.775L0.527906 117.775L0.527906 122.667L5.42969 122.667Z" fill="#630AFF"/>
<path d="M10.6455 122.991L10.6455 122.986L5.75354 122.986L5.75354 122.991L5.75354 127.888L5.75354 127.893L10.6455 127.893L10.6455 127.888L10.6455 122.991Z" fill="#630AFF"/>
<path d="M5.42969 133.109L5.42969 128.217L0.527906 128.217L0.527906 133.109L5.42969 133.109Z" fill="#630AFF"/>
<path d="M10.6455 133.437L10.6455 133.432L5.75354 133.432L5.75354 133.437L5.75354 138.334L5.75354 138.339L10.6455 138.339L10.6455 138.334L10.6455 133.437Z" fill="#630AFF"/>
<path d="M5.42969 143.555L5.42969 138.663L0.527906 138.663L0.527906 143.555L5.42969 143.555Z" fill="#630AFF"/>
<path d="M10.6455 143.879L10.6455 143.874L5.75354 143.874L5.75354 143.879L5.75354 148.776L5.75354 148.78L10.6455 148.78L10.6455 148.776L10.6455 143.879Z" fill="#630AFF"/>
<path d="M5.42969 153.996L5.42969 149.104L0.527906 149.104L0.527906 153.996L5.42969 153.996Z" fill="#630AFF"/>
<path d="M10.6455 154.325L10.6455 154.32L5.75354 154.32L5.75354 154.325L5.75354 159.222L5.75354 159.227L10.6455 159.227L10.6455 159.222L10.6455 154.325Z" fill="#630AFF"/>
<path d="M5.42969 164.438L5.42969 159.546L0.527906 159.546L0.527906 164.438L5.42969 164.438Z" fill="#630AFF"/>
<path d="M10.6455 164.766L10.6455 164.761L5.75354 164.761L5.75354 164.766L5.75354 169.663L5.75354 169.668L10.6455 169.668L10.6455 169.663L10.6455 164.766Z" fill="#630AFF"/>
<path d="M5.42969 174.884L5.42969 169.992L0.527906 169.992L0.527906 174.884L5.42969 174.884Z" fill="#630AFF"/>
<path d="M10.6455 175.208L5.75354 175.208L5.75354 180.11L10.6455 180.11L10.6455 175.208Z" fill="#630AFF"/>
<path d="M5.42969 185.325L5.42969 180.433L0.527906 180.433L0.527906 185.325L5.42969 185.325Z" fill="#630AFF"/>
<path d="M10.6455 185.654L10.6455 185.649L5.75354 185.649L5.75354 185.654L5.75354 190.551L5.75354 190.556L10.6455 190.556L10.6455 190.551L10.6455 185.654Z" fill="#630AFF"/>
<path d="M5.42969 195.772L5.42969 190.88L0.527906 190.88L0.527906 195.772L5.42969 195.772Z" fill="#630AFF"/>
<path d="M10.6455 196.096L5.75354 196.096L5.75354 200.993L5.75354 200.997L10.6455 200.997L10.6455 200.993L10.6455 196.096Z" fill="#630AFF"/>
<path d="M5.42969 206.213L5.42969 201.321L0.527906 201.321L0.527906 206.213L5.42969 206.213Z" fill="#630AFF"/>
<path d="M10.6455 206.542L10.6455 206.537L5.75354 206.537L5.75354 206.542L5.75354 211.439L5.75354 211.444L10.6455 211.444L10.6455 211.439L10.6455 206.542Z" fill="#630AFF"/>
<path d="M5.42969 216.66L5.42969 211.768L0.527906 211.768L0.527906 216.66L5.42969 216.66Z" fill="#630AFF"/>
<path d="M10.6455 216.983L5.75354 216.983L5.75354 221.88L5.75354 221.885L10.6455 221.885L10.6455 221.88L10.6455 216.983Z" fill="#630AFF"/>
<path d="M5.42969 227.101L5.42969 222.209L0.527906 222.209L0.527906 227.101L5.42969 227.101Z" fill="#630AFF"/>
<path d="M10.6455 227.43L10.6455 227.425L5.75354 227.425L5.75354 227.43L5.75354 232.327L5.75354 232.331L10.6455 232.331L10.6455 232.327L10.6455 227.43Z" fill="#630AFF"/>
<path d="M5.42969 237.547L5.42969 232.655L0.527906 232.655L0.527906 237.547L5.42969 237.547Z" fill="#630AFF"/>
<path d="M10.6455 237.871L10.6455 237.866L5.75354 237.866L5.75354 237.871L5.75354 242.768L5.75354 242.773L10.6455 242.773L10.6455 242.768L10.6455 237.871Z" fill="#630AFF"/>
<path d="M5.42969 247.989L5.42969 243.097L0.527906 243.097L0.527906 247.989L5.42969 247.989Z" fill="#630AFF"/>
<path d="M10.6455 248.317L10.6455 248.312L5.75354 248.312L5.75354 248.317L5.75354 253.214L10.6455 253.214L10.6455 248.317Z" fill="#630AFF"/>
<path d="M5.42969 258.43L5.42969 253.538L0.527906 253.538L0.527906 258.43L5.42969 258.43Z" fill="#630AFF"/>
<path d="M10.6455 258.759L10.6455 258.754L5.75354 258.754L5.75354 258.759L5.75354 263.656L5.75354 263.661L10.6455 263.661L10.6455 263.656L10.6455 258.759Z" fill="#630AFF"/>
<path d="M5.42969 268.877L5.42969 263.985L0.527906 263.985L0.527906 268.877L5.42969 268.877Z" fill="#630AFF"/>
<path d="M10.6455 269.2L5.75354 269.2L5.75354 274.102L10.6455 274.102L10.6455 269.2Z" fill="#630AFF"/>
<path d="M5.42969 279.318L5.42969 274.426L0.527906 274.426L0.527906 279.318L5.42969 279.318Z" fill="#630AFF"/>
<path d="M10.6455 279.647L10.6455 279.642L5.75354 279.642L5.75354 279.647L5.75354 284.544L5.75354 284.549L10.6455 284.549L10.6455 284.544L10.6455 279.647Z" fill="#630AFF"/>
<path d="M5.42969 289.764L5.42969 284.872L0.527906 284.872L0.527906 289.764L5.42969 289.764Z" fill="#630AFF"/>
<path d="M10.6455 290.088L5.75354 290.088L5.75354 294.985L5.75354 294.99L10.6455 294.99L10.6455 294.985L10.6455 290.088Z" fill="#630AFF"/>
<path d="M5.42969 300.206L5.42969 295.314L0.527906 295.314L0.527906 300.206L5.42969 300.206Z" fill="#630AFF"/>
<path d="M10.6455 300.534L10.6455 300.53L5.75354 300.53L5.75354 300.534L5.75354 305.431L5.75354 305.436L10.6455 305.436L10.6455 305.431L10.6455 300.534Z" fill="#630AFF"/>
<path d="M5.42969 310.652L5.42969 305.76L0.527906 305.76L0.527906 310.652L5.42969 310.652Z" fill="#630AFF"/>
<path d="M10.6455 310.976L10.6455 310.971L5.75354 310.971L5.75354 310.976L5.75354 315.873L5.75354 315.878L10.6455 315.878L10.6455 315.873L10.6455 310.976Z" fill="#630AFF"/>
<path d="M5.42969 321.093L5.42969 316.201L0.527906 316.201L0.527906 321.093L5.42969 321.093Z" fill="#630AFF"/>
<path d="M10.6455 321.422L10.6455 321.417L5.75354 321.417L5.75354 321.422L5.75354 326.319L5.75354 326.324L10.6455 326.324L10.6455 326.319L10.6455 321.422Z" fill="#630AFF"/>
<path d="M5.42969 331.54L5.42969 326.648L0.527906 326.648L0.527906 331.54L5.42969 331.54Z" fill="#630AFF"/>
<path d="M10.6455 331.864L10.6455 331.859L5.75354 331.859L5.75354 331.864L5.75354 336.76L5.75354 336.765L10.6455 336.765L10.6455 336.76L10.6455 331.864Z" fill="#630AFF"/>
<path d="M5.42969 341.981L5.42969 337.089L0.527906 337.089L0.527906 341.981L5.42969 341.981Z" fill="#630AFF"/>
<path d="M10.6455 342.31L10.6455 342.305L5.75354 342.305L5.75354 342.31L5.75354 347.207L5.75354 347.212L10.6455 347.212L10.6455 347.207L10.6455 342.31Z" fill="#630AFF"/>
<path d="M5.42969 352.423L5.42969 347.531L0.527906 347.531L0.527906 352.423L5.42969 352.423Z" fill="#630AFF"/>
<path d="M10.6455 352.751L10.6455 352.747L5.75354 352.747L5.75354 352.751L5.75354 357.648L5.75354 357.653L10.6455 357.653L10.6455 357.648L10.6455 352.751Z" fill="#630AFF"/>
<path d="M5.42969 362.869L5.42969 357.977L0.527906 357.977L0.527906 362.869L5.42969 362.869Z" fill="#630AFF"/>
<path d="M10.6455 363.193L5.75354 363.193L5.75354 368.095L10.6455 368.095L10.6455 363.193Z" fill="#630AFF"/>
<path d="M5.42969 373.31L5.42969 368.418L0.527906 368.418L0.527906 373.31L5.42969 373.31Z" fill="#630AFF"/>
<path d="M10.6455 373.639L10.6455 373.634L5.75354 373.634L5.75354 373.639L5.75354 378.536L5.75354 378.541L10.6455 378.541L10.6455 378.536L10.6455 373.639Z" fill="#630AFF"/>
<path d="M5.42969 383.757L5.42969 378.865L0.527906 378.865L0.527906 383.757L5.42969 383.757Z" fill="#630AFF"/>
<path d="M10.6455 384.081L5.75354 384.081L5.75354 388.977L5.75354 388.982L10.6455 388.982L10.6455 388.977L10.6455 384.081Z" fill="#630AFF"/>
<path d="M5.42969 394.198L5.42969 389.306L0.527906 389.306L0.527906 394.198L5.42969 394.198Z" fill="#630AFF"/>
<path d="M10.6455 394.527L10.6455 394.522L5.75354 394.522L5.75354 394.527L5.75354 399.424L5.75354 399.429L10.6455 399.429L10.6455 399.424L10.6455 394.527Z" fill="#630AFF"/>
<path d="M5.42969 404.645L5.42969 399.753L0.527906 399.753L0.527906 404.645L5.42969 404.645Z" fill="#630AFF"/>
<path d="M10.6455 404.968L10.6455 404.963L5.75354 404.963L5.75354 404.968L5.75354 409.865L5.75354 409.87L10.6455 409.87L10.6455 409.865L10.6455 404.968Z" fill="#630AFF"/>
<path d="M5.42969 415.086L5.42969 410.194L0.527906 410.194L0.527906 415.086L5.42969 415.086Z" fill="#630AFF"/>
<path d="M10.6455 415.415L10.6455 415.41L5.75354 415.41L5.75354 415.415L5.75354 420.312L5.75354 420.317L10.6455 420.317L10.6455 420.312L10.6455 415.415Z" fill="#630AFF"/>
<path d="M5.42969 425.527L5.42969 420.635L0.527906 420.635L0.527906 425.527L5.42969 425.527Z" fill="#630AFF"/>
<path d="M10.6455 425.856L10.6455 425.851L5.75354 425.851L5.75354 425.856L5.75354 430.753L5.75354 430.758L10.6455 430.758L10.6455 430.753L10.6455 425.856Z" fill="#630AFF"/>
<path d="M5.42969 435.974L5.42969 431.082L0.527906 431.082L0.527906 435.974L5.42969 435.974Z" fill="#630AFF"/>
<path d="M10.6455 436.298L5.75354 436.298L5.75354 441.199L5.75354 441.204L10.6455 441.204L10.6455 441.199L10.6455 436.298Z" fill="#630AFF"/>
<path d="M5.42969 446.415L5.42969 441.523L0.527906 441.523L0.527906 446.415L5.42969 446.415Z" fill="#630AFF"/>
<path d="M10.6455 446.744L10.6455 446.739L5.75354 446.739L5.75354 446.744L5.75354 451.641L5.75354 451.646L10.6455 451.646L10.6455 451.641L10.6455 446.744Z" fill="#630AFF"/>
<path d="M5.42969 456.861L5.42969 451.969L0.527906 451.969L0.527906 456.861L5.42969 456.861Z" fill="#630AFF"/>
<path d="M10.6455 457.186L5.75354 457.186L5.75354 462.087L10.6455 462.087L10.6455 457.186Z" fill="#630AFF"/>
<path d="M5.42969 467.303L5.42969 462.411L0.527906 462.411L0.527906 467.303L5.42969 467.303Z" fill="#630AFF"/>
<path d="M10.6455 467.632L10.6455 467.627L5.75354 467.627L5.75354 467.632L5.75354 472.529L5.75354 472.533L10.6455 472.533L10.6455 472.529L10.6455 467.632Z" fill="#630AFF"/>
<path d="M5.42969 477.749L5.42969 472.857L0.527906 472.857L0.527906 477.749L5.42969 477.749Z" fill="#630AFF"/>
<path d="M10.6455 478.073L10.6455 478.068L5.75354 478.068L5.75354 478.073L5.75354 482.97L5.75354 482.975L10.6455 482.975L10.6455 482.97L10.6455 478.073Z" fill="#630AFF"/>
<path d="M5.42969 488.191L5.42969 483.299L0.527906 483.299L0.527906 488.191L5.42969 488.191Z" fill="#630AFF"/>
<path d="M10.6455 488.52L10.6455 488.515L5.75354 488.515L5.75354 488.52L5.75354 493.416L5.75354 493.421L10.6455 493.421L10.6455 493.416L10.6455 488.52Z" fill="#630AFF"/>
<path d="M5.42969 498.637L5.42969 493.745L0.527906 493.745L0.527906 498.637L5.42969 498.637Z" fill="#630AFF"/>
<path d="M10.6455 498.961L10.6455 498.956L5.75354 498.956L5.75354 498.961L5.75354 503.858L5.75354 503.863L10.6455 503.863L10.6455 503.858L10.6455 498.961Z" fill="#630AFF"/>
<path d="M5.42969 509.079L5.42969 504.187L0.527906 504.187L0.527906 509.079L5.42969 509.079Z" fill="#630AFF"/>
<path d="M10.6455 509.407L10.6455 509.402L5.75354 509.402L5.75354 509.407L5.75354 514.304L5.75354 514.309L10.6455 514.309L10.6455 514.304L10.6455 509.407Z" fill="#630AFF"/>
<path d="M5.42969 519.52L5.42969 514.628L0.527906 514.628L0.527906 519.52L5.42969 519.52Z" fill="#630AFF"/>
<path d="M10.6455 519.849L10.6455 519.844L5.75354 519.844L5.75354 519.849L5.75354 524.746L5.75354 524.75L10.6455 524.75L10.6455 524.746L10.6455 519.849Z" fill="#630AFF"/>
<path d="M5.42969 529.966L5.42969 525.074L0.527906 525.074L0.527906 529.966L5.42969 529.966Z" fill="#630AFF"/>
<path d="M10.6455 530.29L5.75354 530.29L5.75354 535.192L10.6455 535.192L10.6455 530.29Z" fill="#630AFF"/>
<path d="M10.6455 759.727L5.75354 759.727L5.75354 764.629L10.6455 764.629L10.6455 759.727Z" fill="#630AFF"/>
<path d="M5.42969 540.408L5.42969 535.516L0.527906 535.516L0.527906 540.408L5.42969 540.408Z" fill="#630AFF"/>
<path d="M5.42969 769.844L5.42969 764.952L0.527906 764.952L0.527906 769.844L5.42969 769.844Z" fill="#630AFF"/>
<path d="M10.6455 540.736L10.6455 540.732L5.75354 540.732L5.75354 540.736L5.75354 545.633L5.75354 545.638L10.6455 545.638L10.6455 545.633L10.6455 540.736Z" fill="#630AFF"/>
<path d="M10.6455 770.173L10.6455 770.168L5.75354 770.168L5.75354 770.173L5.75354 775.07L5.75354 775.075L10.6455 775.075L10.6455 775.07L10.6455 770.173Z" fill="#630AFF"/>
<path d="M5.42969 550.854L5.42969 545.962L0.527906 545.962L0.527906 550.854L5.42969 550.854Z" fill="#630AFF"/>
<path d="M5.42969 780.291L5.42969 775.399L0.527906 775.399L0.527906 780.291L5.42969 780.291Z" fill="#630AFF"/>
<path d="M10.6455 551.178L5.75354 551.178L5.75354 556.075L5.75354 556.08L10.6455 556.08L10.6455 556.075L10.6455 551.178Z" fill="#630AFF"/>
<path d="M10.6455 780.615L5.75354 780.615L5.75354 785.511L5.75354 785.516L10.6455 785.516L10.6455 785.511L10.6455 780.615Z" fill="#630AFF"/>
<path d="M5.42969 561.296L5.42969 556.404L0.527906 556.404L0.527906 561.296L5.42969 561.296Z" fill="#630AFF"/>
<path d="M5.42969 790.732L5.42969 785.84L0.527906 785.84L0.527906 790.732L5.42969 790.732Z" fill="#630AFF"/>
<path d="M10.6455 561.624L10.6455 561.619L5.75354 561.619L5.75354 561.624L5.75354 566.521L5.75354 566.526L10.6455 566.526L10.6455 566.521L10.6455 561.624Z" fill="#630AFF"/>
<path d="M10.6455 791.061L10.6455 791.056L5.75354 791.056L5.75354 791.061L5.75354 795.958L5.75354 795.963L10.6455 795.963L10.6455 795.958L10.6455 791.061Z" fill="#630AFF"/>
<path d="M5.42969 571.742L5.42969 566.85L0.527906 566.85L0.527906 571.742L5.42969 571.742Z" fill="#630AFF"/>
<path d="M5.42969 801.178L5.42969 796.286L0.527906 796.286L0.527906 801.178L5.42969 801.178Z" fill="#630AFF"/>
<path d="M10.6455 572.066L10.6455 572.061L5.75354 572.061L5.75354 572.066L5.75354 576.963L5.75354 576.967L10.6455 576.967L10.6455 576.963L10.6455 572.066Z" fill="#630AFF"/>
<path d="M10.6455 801.502L10.6455 801.497L5.75354 801.497L5.75354 801.502L5.75354 806.399L5.75354 806.404L10.6455 806.404L10.6455 806.399L10.6455 801.502Z" fill="#630AFF"/>
<path d="M5.42969 582.183L5.42969 577.291L0.527906 577.291L0.527906 582.183L5.42969 582.183Z" fill="#630AFF"/>
<path d="M5.42969 811.62L5.42969 806.728L0.527906 806.728L0.527906 811.62L5.42969 811.62Z" fill="#630AFF"/>
<path d="M10.6455 582.512L10.6455 582.507L5.75354 582.507L5.75354 582.512L5.75354 587.409L5.75354 587.414L10.6455 587.414L10.6455 587.409L10.6455 582.512Z" fill="#630AFF"/>
<path d="M10.6455 811.949L10.6455 811.944L5.75354 811.944L5.75354 811.949L5.75354 816.845L5.75354 816.85L10.6455 816.85L10.6455 816.845L10.6455 811.949Z" fill="#630AFF"/>
<path d="M5.42969 592.63L5.42969 587.738L0.527906 587.738L0.527906 592.63L5.42969 592.63Z" fill="#630AFF"/>
<path d="M5.42969 822.066L5.42969 817.174L0.527906 817.174L0.527906 822.066L5.42969 822.066Z" fill="#630AFF"/>
<path d="M10.6455 592.953L10.6455 592.948L5.75354 592.948L5.75354 592.953L5.75354 597.85L5.75354 597.855L10.6455 597.855L10.6455 597.85L10.6455 592.953Z" fill="#630AFF"/>
<path d="M10.6455 822.39L10.6455 822.385L5.75354 822.385L5.75354 822.39L5.75354 827.287L5.75354 827.292L10.6455 827.292L10.6455 827.287L10.6455 822.39Z" fill="#630AFF"/>
<path d="M5.42969 603.071L5.42969 598.179L0.527906 598.179L0.527906 603.071L5.42969 603.071Z" fill="#630AFF"/>
<path d="M5.42969 832.507L5.42969 827.615L0.527906 827.615L0.527906 832.507L5.42969 832.507Z" fill="#630AFF"/>
<path d="M10.6455 603.4L10.6455 603.395L5.75354 603.395L5.75354 603.4L5.75354 608.297L10.6455 608.297L10.6455 603.4Z" fill="#630AFF"/>
<path d="M10.6455 832.836L10.6455 832.832L5.75354 832.832L5.75354 832.836L5.75354 837.733L10.6455 837.733L10.6455 832.836Z" fill="#630AFF"/>
<path d="M5.42969 613.513L5.42969 608.621L0.527906 608.621L0.527906 613.513L5.42969 613.513Z" fill="#630AFF"/>
<path d="M5.42969 842.949L5.42969 838.057L0.527906 838.057L0.527906 842.949L5.42969 842.949Z" fill="#630AFF"/>
<path d="M10.6455 613.841L10.6455 613.836L5.75354 613.836L5.75354 613.841L5.75354 618.738L5.75354 618.743L10.6455 618.743L10.6455 618.738L10.6455 613.841Z" fill="#630AFF"/>
<path d="M10.6455 843.278L10.6455 843.273L5.75354 843.273L5.75354 843.278L5.75354 848.175L5.75354 848.18L10.6455 848.18L10.6455 848.175L10.6455 843.278Z" fill="#630AFF"/>
<path d="M5.42969 623.959L5.42969 619.067L0.527906 619.067L0.527906 623.959L5.42969 623.959Z" fill="#630AFF"/>
<path d="M5.42969 853.395L5.42969 848.503L0.527906 848.503L0.527906 853.395L5.42969 853.395Z" fill="#630AFF"/>
<path d="M10.6455 624.288L10.6455 624.283L5.75354 624.283L5.75354 624.288L5.75354 629.184L10.6455 629.184L10.6455 624.288Z" fill="#630AFF"/>
<path d="M10.6455 853.724L10.6455 853.719L5.75354 853.719L5.75354 853.724L5.75354 858.621L10.6455 858.621L10.6455 853.724Z" fill="#630AFF"/>
<path d="M5.42969 634.4L5.42969 629.508L0.527906 629.508L0.527906 634.4L5.42969 634.4Z" fill="#630AFF"/>
<path d="M5.42969 863.837L5.42969 858.945L0.527906 858.945L0.527906 863.837L5.42969 863.837Z" fill="#630AFF"/>
<path d="M10.6455 634.729L10.6455 634.724L5.75354 634.724L5.75354 634.729L5.75354 639.626L5.75354 639.631L10.6455 639.631L10.6455 639.626L10.6455 634.729Z" fill="#630AFF"/>
<path d="M10.6455 864.166L10.6455 864.161L5.75354 864.161L5.75354 864.166L5.75354 869.062L5.75354 869.067L10.6455 869.067L10.6455 869.062L10.6455 864.166Z" fill="#630AFF"/>
<path d="M5.42969 644.847L5.42969 639.955L0.527906 639.955L0.527906 644.847L5.42969 644.847Z" fill="#630AFF"/>
<path d="M5.42969 874.283L5.42969 869.391L0.527906 869.391L0.527906 874.283L5.42969 874.283Z" fill="#630AFF"/>
<path d="M10.6455 645.17L5.75354 645.17L5.75354 650.067L5.75354 650.072L10.6455 650.072L10.6455 650.067L10.6455 645.17Z" fill="#630AFF"/>
<path d="M10.6455 874.607L5.75354 874.607L5.75354 879.504L5.75354 879.509L10.6455 879.509L10.6455 879.504L10.6455 874.607Z" fill="#630AFF"/>
<path d="M5.42969 655.288L5.42969 650.396L0.527906 650.396L0.527906 655.288L5.42969 655.288Z" fill="#630AFF"/>
<path d="M5.42969 884.725L5.42969 879.833L0.527906 879.833L0.527906 884.725L5.42969 884.725Z" fill="#630AFF"/>
<path d="M10.6455 655.617L10.6455 655.612L5.75354 655.612L5.75354 655.617L5.75354 660.514L5.75354 660.519L10.6455 660.519L10.6455 660.514L10.6455 655.617Z" fill="#630AFF"/>
<path d="M10.6455 885.053L10.6455 885.048L5.75354 885.048L5.75354 885.053L5.75354 889.95L5.75354 889.955L10.6455 889.955L10.6455 889.95L10.6455 885.053Z" fill="#630AFF"/>
<path d="M5.42969 665.734L5.42969 660.842L0.527906 660.842L0.527906 665.734L5.42969 665.734Z" fill="#630AFF"/>
<path d="M5.42969 895.171L5.42969 890.279L0.527906 890.279L0.527906 895.171L5.42969 895.171Z" fill="#630AFF"/>
<path d="M10.6455 666.058L10.6455 666.053L5.75354 666.053L5.75354 666.058L5.75354 670.955L5.75354 670.96L10.6455 670.96L10.6455 670.955L10.6455 666.058Z" fill="#630AFF"/>
<path d="M10.6455 895.495L10.6455 895.49L5.75354 895.49L5.75354 895.495L5.75354 900.392L5.75354 900.396L10.6455 900.396L10.6455 900.392L10.6455 895.495Z" fill="#630AFF"/>
<path d="M5.42969 676.176L5.42969 671.284L0.527906 671.284L0.527906 676.176L5.42969 676.176Z" fill="#630AFF"/>
<path d="M10.6455 676.505L10.6455 676.5L5.75354 676.5L5.75354 676.505L5.75354 681.402L5.75354 681.406L10.6455 681.406L10.6455 681.402L10.6455 676.505Z" fill="#630AFF"/>
<path d="M5.42969 686.622L5.42969 681.73L0.527906 681.73L0.527906 686.622L5.42969 686.622Z" fill="#630AFF"/>
<path d="M10.6455 686.946L10.6455 686.941L5.75354 686.941L5.75354 686.946L5.75354 691.843L5.75354 691.848L10.6455 691.848L10.6455 691.843L10.6455 686.946Z" fill="#630AFF"/>
<path d="M5.42969 697.064L5.42969 692.172L0.527906 692.172L0.527906 697.064L5.42969 697.064Z" fill="#630AFF"/>
<path d="M10.6455 697.392L10.6455 697.387L5.75354 697.387L5.75354 697.392L5.75354 702.289L5.75354 702.294L10.6455 702.294L10.6455 702.289L10.6455 697.392Z" fill="#630AFF"/>
<path d="M5.42969 707.505L5.42969 702.613L0.527906 702.613L0.527906 707.505L5.42969 707.505Z" fill="#630AFF"/>
<path d="M10.6455 707.834L10.6455 707.829L5.75354 707.829L5.75354 707.834L5.75354 712.731L5.75354 712.736L10.6455 712.736L10.6455 712.731L10.6455 707.834Z" fill="#630AFF"/>
<path d="M5.42969 717.951L5.42969 713.059L0.527906 713.059L0.527906 717.951L5.42969 717.951Z" fill="#630AFF"/>
<path d="M10.6455 718.28L10.6455 718.275L5.75354 718.275L5.75354 718.28L5.75354 723.177L10.6455 723.177L10.6455 718.28Z" fill="#630AFF"/>
<path d="M5.42969 728.393L5.42969 723.501L0.527906 723.501L0.527906 728.393L5.42969 728.393Z" fill="#630AFF"/>
<path d="M10.6455 728.721L10.6455 728.717L5.75354 728.717L5.75354 728.721L5.75354 733.618L5.75354 733.623L10.6455 733.623L10.6455 733.618L10.6455 728.721Z" fill="#630AFF"/>
<path d="M5.42969 738.839L5.42969 733.947L0.527906 733.947L0.527906 738.839L5.42969 738.839Z" fill="#630AFF"/>
<path d="M10.6455 739.163L5.75354 739.163L5.75354 744.06L5.75354 744.065L10.6455 744.065L10.6455 744.06L10.6455 739.163Z" fill="#630AFF"/>
<path d="M5.42969 749.281L5.42969 744.389L0.527906 744.389L0.527906 749.281L5.42969 749.281Z" fill="#630AFF"/>
<path d="M10.6455 749.609L10.6455 749.604L5.75354 749.604L5.75354 749.609L5.75354 754.506L5.75354 754.511L10.6455 754.511L10.6455 754.506L10.6455 749.609Z" fill="#630AFF"/>
<path d="M5.42969 759.727L5.42969 754.835L0.527906 754.835L0.527906 759.727L5.42969 759.727Z" fill="#630AFF"/>
</svg>
