<svg width="36" height="36" viewBox="0 0 36 36" fill="none" xmlns="http://www.w3.org/2000/svg">
<path d="M10.9473 22.0001C11.4673 22.5201 12.3073 22.5201 12.8273 22.0001L18.0007 16.8268L23.174 22.0001C23.694 22.5201 24.534 22.5201 25.054 22.0001C25.574 21.4801 25.574 20.6401 25.054 20.1201L18.934 14.0001C18.414 13.4801 17.574 13.4801 17.054 14.0001L10.934 20.1201C10.4273 20.6268 10.4273 21.4801 10.9473 22.0001Z" fill="#969696"/>
<path fill-rule="evenodd" clip-rule="evenodd" d="M3 18C3 9.705 9.705 3 18 3C26.295 3 33 9.705 33 18C33 26.295 26.295 33 18 33C9.705 33 3 26.295 3 18ZM6 18C6 24.615 11.385 30 18 30C24.615 30 30 24.615 30 18C30 11.385 24.615 6 18 6C11.385 6 6 11.385 6 18Z" fill="#969696"/>
</svg>
