<svg width="101" height="100" viewBox="0 0 101 100" fill="none" xmlns="http://www.w3.org/2000/svg">
<circle cx="50.3516" cy="50" r="50" fill="#EDFBFB"/>
<mask id="mask0_822_1481" style="mask-type:alpha" maskUnits="userSpaceOnUse" x="0" y="0" width="101" height="100">
<circle cx="50.3516" cy="50" r="50" fill="#EDFBFB"/>
</mask>
<g mask="url(#mask0_822_1481)">
<path d="M63.1583 73.0928L50.5743 78.9903L37.9932 73.0928L40.2099 61.7178H60.3137L63.1583 73.0928Z" fill="#DBA87B"/>
<path d="M69.1535 37.2207C68.5493 44.5969 67.1166 53.2536 64.4342 58.0894C62.6272 61.3444 55.2548 68.7031 50.2642 68.7031C45.2707 68.7031 38.252 61.604 35.9999 57.8823C33.7508 54.1606 32.1 46.0669 31.3719 37.2207C30.1869 22.8153 39.8291 16.4336 50.2613 16.4336C60.6964 16.4336 70.3297 22.8153 69.1535 37.2207Z" fill="#E4B58B"/>
<path d="M72.843 43.2846C72.5777 44.8887 71.1716 47.7033 70.5673 48.7154C70.1605 49.3979 68.044 50.7629 67.1066 50.6783C66.1663 50.5937 66.5259 48.0854 66.1781 47.2337C65.8302 46.3791 65.6887 44.5796 65.733 42.6283C65.8067 39.455 67.7551 38.2271 69.7184 38.4079C71.6786 38.5858 73.3618 40.1521 72.843 43.2846Z" fill="#E4B58B"/>
<path d="M27.7598 43.2846C28.0251 44.8887 29.4312 47.7033 30.0355 48.7154C30.4422 49.3979 32.5587 50.7629 33.4932 50.6783C34.4335 50.5937 34.0769 48.0854 34.4217 47.2337C34.7725 46.3791 34.9111 44.5796 34.8669 42.6283C34.7932 39.455 32.8447 38.2271 30.8815 38.4079C28.9212 38.5858 27.241 40.1521 27.7598 43.2846Z" fill="#E4B58B"/>
<path d="M32.9302 37.0242C32.9302 37.0242 34.3127 34.9942 35.1499 34.7171C37.1337 34.0696 40.5502 33.0371 41.2105 33.0342C42.3542 33.0313 44.226 33.8129 44.226 33.8129L43.5569 35.2304C43.5569 35.2304 42.0919 34.3817 40.7772 34.3963C40.0844 34.4021 37.7174 34.6821 35.4829 35.2917C34.6782 35.5075 32.9302 37.0242 32.9302 37.0242Z" fill="#331B19"/>
<path d="M67.4984 37.1452C67.4984 37.1452 66.1778 35.0744 65.3465 34.7769C63.3833 34.0711 60.0022 32.9365 59.3419 32.9161C58.1982 32.884 56.3027 33.6073 56.3027 33.6073L56.9306 35.0423C56.9306 35.0423 58.4222 34.2373 59.7369 34.2898C60.4296 34.3161 62.7878 34.6632 65.0016 35.3369C65.7975 35.579 67.4984 37.1452 67.4984 37.1452Z" fill="#331B19"/>
<path d="M31.2719 38.3891L33.1084 45.3133L34.5616 44.8991C34.5616 44.8991 31.1717 32.8621 32.9197 29.5691C34.6648 26.2762 36.2242 24.8354 38.2021 24.6283C40.1771 24.4241 44.6489 26.2762 48.4957 26.0691C52.3426 25.8621 57.3361 22.8812 59.2079 22.8812C61.0798 22.8812 65.5515 25.8621 66.1735 27.9212C66.7985 29.9833 66.7985 42.5687 66.7985 42.5687L67.503 43.5633L69.251 38.3891L71.285 38.9083C71.285 38.9083 72.9357 22.0587 69.814 18.1504C66.6894 14.2362 57.6456 9.40332 48.1833 9.40332C40.2095 9.40332 30.364 16.6046 28.5953 21.1341C26.4611 26.6029 28.7368 39.3545 28.7368 39.3545L31.2719 38.3891Z" fill="#331B19"/>
<path d="M65.4124 101.662V73.3379L49.8688 78.1008L34.8823 73.3379V101.662H65.4124Z" fill="#E7E7E7"/>
<path d="M50.3063 78.1006C50.3063 78.1006 46.0615 79.556 46.0615 80.8714C46.0615 82.1839 48.3844 85.5847 48.3844 85.5847H52.6292C52.6292 85.5847 54.5541 82.1956 54.5541 80.8714C54.5541 79.5502 50.3063 78.1006 50.3063 78.1006Z" fill="#00B5CF"/>
<path d="M54.13 101.661L52.6325 85.584H48.3877L46.79 101.661H54.13Z" fill="#00B5CF"/>
<path d="M69.1556 72.1312L55.6725 80.9104L50.396 78.1133L61.9424 66.5312L69.1556 72.1312Z" fill="white"/>
<path d="M31.6138 72.062L44.7402 80.9083L50.394 78.1112L38.8034 66.4854L31.6138 72.062Z" fill="white"/>
<path d="M87.5289 101.66C86.3262 89.6875 84.7432 78.1726 82.9923 76.1192C79.1336 71.5955 63.6136 67.8271 63.6136 67.8271L58.7085 101.663H87.5289V101.66Z" fill="#272127"/>
<path d="M65.1408 101.66L73.3946 85.3855L66.9537 82.0342L71.6701 79.2226L63.6198 67.8271L58.8208 101.66H65.1408Z" fill="#352E35"/>
<path d="M41.9947 101.66L37.0896 67.8271C37.0896 67.8271 21.5725 71.5955 17.7109 76.1192C15.96 78.1726 14.377 89.6875 13.1743 101.66H41.9947Z" fill="#272127"/>
<path d="M35.5682 101.66H41.8882L37.0922 67.8271L29.0389 79.2226L33.7553 82.0342L27.3145 85.3855L35.5682 101.66Z" fill="#352E35"/>
<path d="M47.9717 58.022C47.9717 58.022 50.89 57.6429 51.5208 58.022C52.1575 58.3983 53.1716 58.7745 53.1716 58.7745" fill="#DBA87B"/>
<path d="M64.3936 38.8402C64.3936 38.8402 64.2079 39.8989 63.2469 40.8002C62.5218 41.4768 58.1001 41.9318 57.6285 41.7247C56.9328 41.4156 56.0249 39.9397 56.0249 39.9397C56.0249 39.9397 57.5843 37.8193 59.5062 37.8193C61.4223 37.8193 64.3936 38.8402 64.3936 38.8402Z" fill="white"/>
<path d="M59.5009 38.2355C60.8863 38.2355 62.82 38.7663 63.7869 39.0609C64.0051 39.1309 63.893 39.8805 63.5246 40.5046C64.3146 39.7871 64.3912 38.8421 64.3912 38.8421C64.3912 38.8421 61.4199 37.8213 59.5009 37.8213C57.5789 37.8213 56.0195 39.9417 56.0195 39.9417C56.0195 39.9417 56.0814 40.1488 56.2465 40.283C56.5885 39.8513 57.8354 38.2355 59.5009 38.2355Z" fill="#432918"/>
<path d="M61.6186 39.7473C61.6186 40.8147 60.749 41.6752 59.6731 41.6752C58.5942 41.6752 57.7246 40.8147 57.7246 39.7473C57.7246 38.6827 58.5942 37.8193 59.6731 37.8193C60.749 37.8193 61.6186 38.6827 61.6186 39.7473Z" fill="#432918"/>
<path d="M61.3422 39.7483C61.3422 40.565 59.0282 38.2725 59.8506 38.2725C60.676 38.2754 61.3422 38.9345 61.3422 39.7483Z" fill="white"/>
<path d="M35.8989 38.8402C35.8989 38.8402 36.0846 39.8989 37.0456 40.8002C37.7708 41.4768 42.1924 41.9318 42.6611 41.7247C43.3568 41.4156 44.2647 39.9397 44.2647 39.9397C44.2647 39.9397 42.7053 37.8193 40.7863 37.8193C38.8703 37.8193 35.8989 38.8402 35.8989 38.8402Z" fill="white"/>
<path d="M40.7868 38.2355C39.4014 38.2355 37.4676 38.7663 36.5008 39.0609C36.2797 39.1309 36.3947 39.8805 36.7631 40.5046C35.9731 39.7871 35.8965 38.8421 35.8965 38.8421C35.8965 38.8421 38.8678 37.8213 40.7868 37.8213C42.7058 37.8213 44.2652 39.9417 44.2652 39.9417C44.2652 39.9417 44.2063 40.1488 44.0412 40.283C43.6963 39.8513 42.4523 38.2355 40.7868 38.2355Z" fill="#432918"/>
<path d="M38.666 39.7473C38.666 40.8147 39.5386 41.6752 40.6145 41.6752C41.6904 41.6752 42.563 40.8147 42.563 39.7473C42.563 38.6827 41.6904 37.8193 40.6145 37.8193C39.5415 37.8193 38.666 38.6827 38.666 39.7473Z" fill="#432918"/>
<path d="M38.9443 39.7483C38.9443 40.565 41.2583 38.2725 40.4359 38.2725C39.6135 38.2754 38.9443 38.9345 38.9443 39.7483Z" fill="white"/>
<path d="M50.3174 48.4427L48.5693 47.0718L50.3174 43.0381V48.4427Z" fill="#E09D72"/>
<path d="M45.3502 55.9602L44.6958 55.3302L56.4545 54.7031L54.3439 55.9602H45.3502Z" fill="#E09D72"/>
</g>
</svg>
