<svg width="23" height="23" viewBox="0 0 23 23" fill="none" xmlns="http://www.w3.org/2000/svg">
<path d="M10.7637 4.00023H6.56367C4.88351 4.00023 4.04344 4.00023 3.4017 4.32721C2.83721 4.61483 2.37827 5.07377 2.09065 5.63826C1.76367 6.27999 1.76367 7.12007 1.76367 8.80023V17.2002C1.76367 18.8804 1.76367 19.7205 2.09065 20.3622C2.37827 20.9267 2.83721 21.3856 3.4017 21.6732C4.04344 22.0002 4.88351 22.0002 6.56367 22.0002H14.9637C16.6438 22.0002 17.4839 22.0002 18.1256 21.6732C18.6901 21.3856 19.1491 20.9267 19.4367 20.3622C19.7637 19.7205 19.7637 18.8804 19.7637 17.2002V13.0002M7.76365 16.0002H9.43819C9.92737 16.0002 10.172 16.0002 10.4021 15.945C10.6062 15.896 10.8013 15.8152 10.9802 15.7055C11.1821 15.5818 11.355 15.4089 11.7009 15.063L21.2637 5.50023C22.0921 4.6718 22.0921 3.32865 21.2637 2.50023C20.4352 1.6718 19.0921 1.6718 18.2637 2.50022L8.70091 12.063C8.355 12.4089 8.18205 12.5818 8.05837 12.7837C7.94871 12.9626 7.8679 13.1577 7.81891 13.3618C7.76365 13.5919 7.76365 13.8365 7.76365 14.3257V16.0002Z" stroke="#98A2B3" stroke-width="2" stroke-linecap="round" stroke-linejoin="round"/>
</svg>
