<svg width="56" height="56" viewBox="0 0 56 56" fill="none" xmlns="http://www.w3.org/2000/svg">
<rect x="4" y="4" width="48" height="48" rx="24" fill="#C8DBF9"/>
<rect x="4" y="4" width="48" height="48" rx="24" stroke="#D7E7FF" stroke-width="8"/>
<path d="M27 22.0002H22.8C21.1198 22.0002 20.2798 22.0002 19.638 22.3272C19.0735 22.6148 18.6146 23.0738 18.327 23.6383C18 24.28 18 25.1201 18 26.8002V35.2002C18 36.8804 18 37.7205 18.327 38.3622C18.6146 38.9267 19.0735 39.3856 19.638 39.6732C20.2798 40.0002 21.1198 40.0002 22.8 40.0002H31.2C32.8802 40.0002 33.7202 40.0002 34.362 39.6732C34.9265 39.3856 35.3854 38.9267 35.673 38.3622C36 37.7205 36 36.8804 36 35.2002V31.0002M24 34.0002H25.6745C26.1637 34.0002 26.4083 34.0002 26.6385 33.945C26.8425 33.896 27.0376 33.8152 27.2166 33.7055C27.4184 33.5818 27.5914 33.4089 27.9373 33.063L37.5 23.5002C38.3284 22.6718 38.3284 21.3287 37.5 20.5002C36.6716 19.6718 35.3284 19.6718 34.5 20.5002L24.9372 30.063C24.5913 30.4089 24.4184 30.5818 24.2947 30.7837C24.185 30.9626 24.1042 31.1577 24.0552 31.3618C24 31.5919 24 31.8365 24 32.3257V34.0002Z" stroke="#4773B5" stroke-width="2" stroke-linecap="round" stroke-linejoin="round"/>
</svg>
