<svg width="56" height="56" viewBox="0 0 56 56" fill="none" xmlns="http://www.w3.org/2000/svg">
<rect x="4" y="4" width="48" height="48" rx="24" fill="#D1FADF"/>
<rect x="4" y="4" width="48" height="48" rx="24" stroke="#ECFDF3" stroke-width="8"/>
<path d="M26.0002 29C26.4297 29.5741 26.9776 30.0491 27.6067 30.3929C28.2359 30.7367 28.9317 30.9411 29.6468 30.9923C30.362 31.0435 31.0798 30.9403 31.7515 30.6897C32.4233 30.4392 33.0333 30.047 33.5402 29.54L36.5402 26.54C37.451 25.597 37.955 24.3339 37.9436 23.023C37.9322 21.712 37.4063 20.4579 36.4793 19.5309C35.5523 18.6038 34.2982 18.078 32.9872 18.0666C31.6762 18.0552 30.4132 18.5592 29.4702 19.47L27.7502 21.18M30.0002 27C29.5707 26.4258 29.0228 25.9508 28.3936 25.607C27.7645 25.2633 27.0687 25.0588 26.3535 25.0076C25.6384 24.9564 24.9206 25.0596 24.2489 25.3102C23.5771 25.5608 22.9671 25.9529 22.4602 26.46L19.4602 29.46C18.5494 30.403 18.0454 31.666 18.0568 32.977C18.0682 34.288 18.5941 35.542 19.5211 36.4691C20.4481 37.3961 21.7022 37.9219 23.0132 37.9333C24.3242 37.9447 25.5872 37.4408 26.5302 36.53L28.2402 34.82" stroke="#039855" stroke-width="2" stroke-linecap="round" stroke-linejoin="round"/>
</svg>
