<svg width="123" height="106" viewBox="0 0 123 106" fill="none" xmlns="http://www.w3.org/2000/svg">
<g clip-path="url(#clip0_973_1063)">
<path d="M92.8906 32.2746C90.6484 31.009 87.7656 31.009 85.2031 32.2746L67.2656 42.7164L55.0938 49.3612L37.4766 59.803C35.2344 61.0687 32.3516 61.0687 29.7891 59.803L16.0156 51.5761C13.7734 50.3105 12.1719 47.7791 12.1719 44.9314V29.1105C12.1719 26.5791 13.4531 24.0478 16.0156 22.4657L29.7891 14.5552C32.0312 13.2896 34.9141 13.2896 37.4766 14.5552L51.25 22.7821C53.4922 24.0478 55.0938 26.5791 55.0938 29.4269V39.8687L67.2656 32.9075V22.1493C67.2656 19.6179 65.9844 17.0866 63.4219 15.5045L37.7969 0.632847C35.5547 -0.632824 32.6719 -0.632824 30.1094 0.632847L3.84375 15.8209C1.28125 17.0866 0 19.6179 0 22.1493V51.8925C0 54.4239 1.28125 56.9552 3.84375 58.5373L29.7891 73.409C32.0312 74.6746 34.9141 74.6746 37.4766 73.409L55.0938 63.2836L67.2656 56.3224L84.8828 46.197C87.125 44.9314 90.0078 44.9314 92.5703 46.197L106.344 54.1075C108.586 55.3731 110.188 57.9045 110.188 60.7523V76.5732C110.188 79.1045 108.906 81.6358 106.344 83.2179L92.8906 91.1284C90.6484 92.394 87.7656 92.394 85.2031 91.1284L71.4297 83.2179C69.1875 81.9522 67.5859 79.4209 67.5859 76.5732V66.4478L55.4141 73.409V83.8508C55.4141 86.3821 56.6953 88.9134 59.2578 90.4955L85.2031 105.367C87.4453 106.633 90.3281 106.633 92.8906 105.367L118.836 90.4955C121.078 89.2299 122.68 86.6985 122.68 83.8508V53.7911C122.68 51.2597 121.398 48.7284 118.836 47.1463L92.8906 32.2746Z" fill="#8247E5"/>
</g>
<defs>
<clipPath id="clip0_973_1063">
<rect width="123" height="106" fill="white"/>
</clipPath>
</defs>
</svg>
