<svg width="35" height="35" viewBox="0 0 35 35" fill="none" xmlns="http://www.w3.org/2000/svg">
<rect width="35" height="35" rx="10" transform="matrix(1 0 0 -1 0 35)" fill="#76D1BF" fill-opacity="0.2"/>
<path d="M26.2083 18.2884H8.79167C8.35467 18.2884 8 17.9337 8 17.4967C8 17.0597 8.35467 16.7051 8.79167 16.7051H26.2083C26.6453 16.7051 27 17.0597 27 17.4967C27 17.9337 26.6453 18.2884 26.2083 18.2884Z" fill="#76D1BF"/>
<path d="M26.2083 12.2181H8.79167C8.35467 12.2181 8 11.8634 8 11.4264C8 10.9894 8.35467 10.6348 8.79167 10.6348H26.2083C26.6453 10.6348 27 10.9894 27 11.4264C27 11.8634 26.6453 12.2181 26.2083 12.2181Z" fill="#76D1BF"/>
<path d="M26.2083 24.3568H8.79167C8.35467 24.3568 8 24.0021 8 23.5651C8 23.1281 8.35467 22.7734 8.79167 22.7734H26.2083C26.6453 22.7734 27 23.1281 27 23.5651C27 24.0021 26.6453 24.3568 26.2083 24.3568Z" fill="#76D1BF"/>
</svg>
