<svg width="111" height="110" viewBox="0 0 111 110" fill="none" xmlns="http://www.w3.org/2000/svg">
<path d="M55.5 110C86.2564 110 111 85.4793 111 55C111 24.5207 86.2564 0 55.5 0C24.7436 0 0 24.5207 0 55C0 85.4793 24.7436 110 55.5 110Z" fill="#2775CA"/>
<path d="M70.7627 63.7083C70.7627 55.6876 65.9065 52.9376 56.194 51.792C49.2565 50.8751 47.869 49.042 47.869 45.8333C47.869 42.6246 50.1816 40.5626 54.8065 40.5626C58.969 40.5626 61.2816 41.9376 62.4377 45.3751C62.6691 46.0626 63.3629 46.5208 64.0566 46.5208H67.7563C68.6815 46.5208 69.3752 45.8333 69.3752 44.917V44.6876C68.45 39.6458 64.2875 35.7501 58.969 35.292V29.792C58.969 28.8751 58.2752 28.1876 57.1191 27.9583H53.6504C52.7252 27.9583 52.0315 28.6458 51.8 29.792V35.0626C44.8625 35.9795 40.4691 40.5626 40.4691 46.292C40.4691 53.8545 45.094 56.8333 54.8065 57.9795C61.2816 59.1251 63.3629 60.5001 63.3629 64.167C63.3629 67.8338 60.125 70.3545 55.7316 70.3545C49.7188 70.3545 47.6375 67.8333 46.9438 64.3958C46.7129 63.4795 46.0191 63.0208 45.3254 63.0208H41.3938C40.4691 63.0208 39.7754 63.7083 39.7754 64.6251V64.8545C40.7 70.5833 44.4002 74.7083 52.0315 75.8545V81.3545C52.0315 82.2708 52.7252 82.9583 53.8813 83.1876H57.35C58.2752 83.1876 58.969 82.5001 59.2004 81.3545V75.8545C66.1379 74.7083 70.7627 69.8958 70.7627 63.7083Z" fill="white"/>
<path d="M43.7064 87.7705C25.6689 81.3542 16.4187 61.4167 23.1253 43.7705C26.5941 34.1455 34.2253 26.8124 43.7064 23.3749C44.6315 22.9167 45.0939 22.2292 45.0939 21.083V17.8749C45.0939 16.958 44.6315 16.2705 43.7064 16.0417C43.4749 16.0417 43.0126 16.0417 42.7812 16.2705C20.8126 23.1455 8.78743 46.2917 15.7249 68.0624C19.8874 80.8955 29.8314 90.7499 42.7812 94.8749C43.7064 95.333 44.6315 94.8749 44.8624 93.958C45.0939 93.7292 45.0939 93.4999 45.0939 93.0417V89.833C45.0939 89.1455 44.4001 88.2292 43.7064 87.7705ZM68.2191 16.2705C67.2939 15.8124 66.3687 16.2705 66.1378 17.1874C65.9064 17.4167 65.9064 17.6455 65.9064 18.1042V21.3124C65.9064 22.2292 66.6001 23.1455 67.2939 23.6042C85.3314 30.0205 94.5816 49.958 87.8749 67.6042C84.4062 77.2292 76.7749 84.5624 67.2939 87.9999C66.3687 88.458 65.9064 89.1455 65.9064 90.2917V93.4999C65.9064 94.4167 66.3687 95.1042 67.2939 95.333C67.5253 95.333 67.9876 95.333 68.2191 95.1042C90.1876 88.2292 102.213 65.083 95.2753 43.3124C91.1128 30.2499 80.9374 20.3955 68.2191 16.2705Z" fill="white"/>
</svg>
