<svg width="110" height="110" viewBox="0 0 110 110" fill="none" xmlns="http://www.w3.org/2000/svg">
<path d="M55 0C85.3743 0 110 24.6257 110 55C110 85.3743 85.3732 110 55 110C24.6268 110 0 85.3809 0 55C0 24.6191 24.6224 0 55 0Z" fill="#53AE94"/>
<path d="M61.7882 47.6718V39.49H80.4981V27.0237H29.5505V39.49H48.2626V47.6652C33.0551 48.3637 21.6206 51.3755 21.6206 54.9835C21.6206 58.5915 33.0606 61.6033 48.2626 62.3062V88.5137H61.7926V62.304C76.9726 61.6033 88.384 58.5937 88.384 54.989C88.384 51.3843 76.9726 48.3747 61.7926 47.674M61.7926 60.0842V60.0776C61.4109 60.1018 59.4496 60.2195 55.0826 60.2195C51.5912 60.2195 49.1349 60.1205 48.2692 60.0754V60.0864C34.8338 59.4913 24.8051 57.1516 24.8051 54.3521C24.8051 51.5526 34.8349 49.2162 48.2692 48.62V57.7555C49.1492 57.816 51.666 57.9645 55.1398 57.9645C59.3121 57.9645 61.4098 57.7907 61.7948 57.7555V48.62C75.2038 49.2173 85.2094 51.5592 85.2094 54.3488C85.2094 57.1384 75.1994 59.4814 61.7948 60.0787" fill="white"/>
</svg>
