<svg width="110" height="110" viewBox="0 0 110 110" fill="none" xmlns="http://www.w3.org/2000/svg">
<path d="M55 110C85.3757 110 110 85.3757 110 55C110 24.6243 85.3757 0 55 0C24.6243 0 0 24.6243 0 55C0 85.3757 24.6243 110 55 110Z" fill="#E84142"/>
<path d="M74.4017 56.4291C76.308 53.1369 79.3898 53.1369 81.2875 56.4291L93.1528 77.2602C95.0592 80.5502 93.4998 83.2351 89.6828 83.2351H65.783C62.0158 83.2351 60.4565 80.5502 62.3129 77.2602L74.4017 56.4291ZM51.4496 16.3264C53.3537 13.0364 56.3857 13.0364 58.292 16.3264L60.9336 21.0977L67.1688 32.0543C67.9171 33.5999 68.3058 35.2949 68.3058 37.0121C68.3058 38.7294 67.9171 40.4243 67.1688 41.9699L46.251 78.2122C45.3171 79.6641 44.0542 80.8755 42.5647 81.7482C41.0752 82.6209 39.401 83.1303 37.6779 83.2351H20.3104C16.4998 83.2351 14.9405 80.5936 16.8403 77.2602L51.4496 16.3264Z" fill="white"/>
</svg>
