<svg width="111" height="110" viewBox="0 0 111 110" fill="none" xmlns="http://www.w3.org/2000/svg">
<path d="M84.6739 28.4042L82.1343 30.9211C88.1944 37.4889 91.5554 46.0662 91.5554 54.9661C91.5554 63.8661 88.1944 72.4433 82.1343 79.0112L84.6739 81.5284C91.4139 74.2835 95.1555 64.7905 95.1555 54.9368C95.1555 45.0831 91.4139 35.5902 84.6739 28.3455V28.4042Z" fill="#5A5564"/>
<path d="M31.2621 28.6222C37.8896 22.6164 46.5452 19.2859 55.5261 19.2859C64.5064 19.2859 73.1621 22.6164 79.7897 28.6222L82.3293 26.1053C75.0186 19.4262 65.4397 15.718 55.496 15.718C45.5529 15.718 35.9737 19.4262 28.6631 26.1053L31.2621 28.6222Z" fill="#5A5564"/>
<path d="M28.8833 79.0365C22.8301 72.4704 19.4737 63.8977 19.4737 55.0042C19.4737 46.1103 22.8301 37.5378 28.8833 30.9715L26.3435 28.4546C19.6037 35.6993 15.8618 45.1922 15.8618 55.0459C15.8618 64.8997 19.6037 74.3927 26.3435 81.6375L28.8833 79.0365Z" fill="#5A5564"/>
<path d="M79.7544 81.3611C73.1268 87.3666 64.4711 90.6973 55.4907 90.6973C46.5099 90.6973 37.8543 87.3666 31.2268 81.3611L28.687 83.8778C35.9976 90.5571 45.5768 94.265 55.5203 94.265C65.4636 94.265 75.0425 90.5571 82.3532 83.8778L79.7544 81.3611Z" fill="#5A5564"/>
<path d="M71.536 46.6018C71.0278 41.3497 66.4564 39.5878 60.6742 39.0508V31.8188H56.2037V38.9166C55.0271 38.9166 53.8251 38.9166 52.6314 38.9166V31.8188H48.1951V39.1012H39.1279V43.8414C39.1279 43.8414 42.4297 43.7827 42.3789 43.8414C42.9742 43.7765 43.5717 43.9431 44.0455 44.3062C44.5193 44.6693 44.8324 45.2005 44.9187 45.7878V65.7221C44.906 65.9293 44.8515 66.1314 44.7584 66.3175C44.6653 66.5036 44.5356 66.669 44.3769 66.8043C44.2211 66.9422 44.0388 67.0476 43.8409 67.1136C43.6431 67.1801 43.4338 67.2062 43.2255 67.1902C43.2847 67.2406 39.9745 67.1902 39.9745 67.1902L39.1279 72.4839H48.1104V79.8837H52.5805V72.593H56.1533V79.8503H60.6317V72.5343C68.1834 72.0815 73.4494 70.2358 74.1094 63.2302C74.6431 57.5922 71.9676 55.0755 67.6922 54.0603C70.2915 52.7935 71.9 50.444 71.536 46.6018ZM65.271 62.3575C65.271 67.8612 55.7551 67.2319 52.7243 67.2319V57.4662C55.7551 57.4749 65.271 56.6105 65.271 62.3575ZM63.1967 48.5983C63.1967 53.6322 55.2556 53.0199 52.7326 53.0199V44.1434C55.2556 44.1434 63.1967 43.3548 63.1967 48.5983Z" fill="#F09242"/>
<path d="M55.4918 100.833C46.3449 100.832 37.4041 98.1425 29.7996 93.1055C22.1951 88.0688 16.2684 80.9106 12.769 72.5359C9.26947 64.1612 8.35428 54.9465 10.1391 46.0566C11.9239 37.1664 16.3287 29.0004 22.7963 22.5911C29.264 16.1816 37.5042 11.8166 46.4749 10.0478C55.446 8.2791 64.7445 9.18605 73.1953 12.654C81.6461 16.122 88.8695 21.9953 93.9519 29.5312C99.0348 37.0672 101.748 45.9274 101.75 54.9918C101.751 61.012 100.555 66.9736 98.2309 72.5359C95.9069 78.0982 92.4996 83.1523 88.2035 87.4093C83.9078 91.6663 78.8082 95.0428 73.1953 97.3464C67.5824 99.6495 61.5667 100.834 55.4918 100.833ZM55.4918 12.7408C47.0646 12.7474 38.8289 15.2297 31.8252 19.8737C24.8215 24.5177 19.3643 31.1151 16.1433 38.832C12.9224 46.5489 12.0823 55.039 13.7291 63.229C15.376 71.4189 19.436 78.9411 25.3959 84.8449C31.3557 90.7487 38.9481 94.7692 47.213 96.3981C55.4784 98.0266 64.0448 97.1906 71.8305 93.996C79.6167 90.8009 86.2716 85.3903 90.9553 78.4475C95.6386 71.5051 98.1403 63.3427 98.1435 54.9918C98.1458 49.4414 97.0437 43.9447 94.9009 38.8165C92.7582 33.6883 89.6164 29.029 85.6551 25.105C81.6938 21.1809 76.9906 18.0692 71.8152 15.9477C66.6394 13.8261 61.0926 12.7364 55.4918 12.7408Z" fill="#282138"/>
</svg>
