<svg width="110" height="110" viewBox="0 0 110 110" fill="none" xmlns="http://www.w3.org/2000/svg">
<path d="M95.6152 33.2116L81.3364 18.9328C73.1922 8.67317 60.6056 2.11548 46.5383 2.11548C21.9998 2.11548 2.11523 22.0001 2.11523 46.5386C2.11523 60.6059 8.67293 73.1924 18.9325 81.3366L33.2114 95.6155C40.9325 103.337 53.3075 103.337 61.0287 95.6155L95.6152 61.0289C103.336 53.4136 103.336 40.9328 95.6152 33.2116Z" fill="#ED1E79"/>
<path d="M47.1731 103.548C41.3558 103.548 35.8558 101.327 31.7308 97.2019L17.4519 82.9231C6.34615 74.0385 0 60.7115 0 46.5385C0 20.8365 20.8365 0 46.5385 0C60.7115 0 74.0385 6.34615 82.9231 17.4519L97.0962 31.7308C101.221 35.8558 103.442 41.3558 103.442 47.1731C103.442 52.9904 101.221 58.4904 97.0962 62.6154L62.5096 97.0962C58.3846 101.221 52.9904 103.548 47.1731 103.548ZM46.5385 4.23077C23.1635 4.23077 4.23077 23.1635 4.23077 46.5385C4.23077 59.4423 10.0481 71.6058 20.2019 79.6442L20.4135 79.8558L34.6923 94.1346C37.9712 97.4135 42.4135 99.3173 47.0673 99.3173C51.7212 99.3173 56.1635 97.5192 59.4423 94.1346L94.1346 59.5481C97.4135 56.2692 99.3173 51.8269 99.3173 47.1731C99.3173 42.5192 97.5192 38.0769 94.1346 34.7981L79.6442 20.2019C71.6058 10.0481 59.4423 4.23077 46.5385 4.23077Z" fill="black"/>
<path d="M4.27234 52.579L1.28076 55.5706L27.4571 81.7469L30.4486 78.7553L4.27234 52.579Z" fill="black"/>
<path d="M4.27234 36.7137L1.28076 39.7053L27.4571 65.8816L30.4486 62.89L4.27234 36.7137Z" fill="black"/>
<path d="M63.4612 107.885C87.9953 107.885 107.884 87.9958 107.884 63.4617C107.884 38.9275 87.9953 19.0386 63.4612 19.0386C38.927 19.0386 19.0381 38.9275 19.0381 63.4617C19.0381 87.9958 38.927 107.885 63.4612 107.885Z" fill="white"/>
<path d="M63.4613 110C37.7594 110 16.9229 89.1635 16.9229 63.4616C16.9229 37.7596 37.7594 16.9231 63.4613 16.9231C89.1632 16.9231 110 37.7596 110 63.4616C110 89.1635 89.1632 110 63.4613 110ZM63.4613 21.1539C40.0863 21.1539 21.1536 40.0866 21.1536 63.4616C21.1536 86.8366 40.0863 105.769 63.4613 105.769C86.8363 105.769 105.769 86.8366 105.769 63.4616C105.769 40.0866 86.8363 21.1539 63.4613 21.1539Z" fill="black"/>
<path d="M63.4614 97.3078C82.1541 97.3078 97.3075 82.1543 97.3075 63.4616C97.3075 44.7689 82.1541 29.6155 63.4614 29.6155C44.7687 29.6155 29.6152 44.7689 29.6152 63.4616C29.6152 82.1543 44.7687 97.3078 63.4614 97.3078Z" fill="white"/>
<path d="M63.4615 99.4231C43.6827 99.4231 27.5 83.2404 27.5 63.4615C27.5 43.6827 43.6827 27.5 63.4615 27.5C83.2404 27.5 99.4231 43.6827 99.4231 63.4615C99.4231 83.2404 83.2404 99.4231 63.4615 99.4231ZM63.4615 31.7308C46.0096 31.7308 31.7308 46.0096 31.7308 63.4615C31.7308 80.9135 46.0096 95.1923 63.4615 95.1923C80.9135 95.1923 95.1923 80.9135 95.1923 63.4615C95.1923 46.0096 80.9135 31.7308 63.4615 31.7308Z" fill="black"/>
<path d="M55.6348 74.0384H46.0098V55.1057H55.3175V58.5961H49.6059V62.8269H54.8944V66.3173H49.6059V70.6538H55.6348V74.0384Z" fill="black"/>
<path d="M69.5964 58.5961H65.0483V74.0384H61.3464V58.5961H56.7983V55.1057H69.5964V58.5961Z" fill="black"/>
<path d="M85.6732 74.0384H82.077V66.3173H75.4135V74.0384H71.8174V55.1057H75.4135V62.6153H82.077V55.1057H85.6732V74.0384Z" fill="black"/>
</svg>
