<svg width="20" height="16" viewBox="0 0 20 16" fill="none" xmlns="http://www.w3.org/2000/svg">
<path d="M13.3327 12.0013L15.8327 14.5013M15.8327 14.5013L18.3327 12.0013M15.8327 14.5013V9.5013M18.3327 5.33464H1.66602M18.3327 7.0013V3.83464C18.3327 2.90122 18.3327 2.43451 18.151 2.07799C17.9912 1.76438 17.7363 1.50941 17.4227 1.34963C17.0661 1.16797 16.5994 1.16797 15.666 1.16797H4.33268C3.39926 1.16797 2.93255 1.16797 2.57603 1.34962C2.26243 1.50941 2.00746 1.76438 1.84767 2.07798C1.66602 2.4345 1.66602 2.90121 1.66602 3.83464V10.168C1.66602 11.1014 1.66602 11.5681 1.84767 11.9246C2.00746 12.2382 2.26243 12.4932 2.57603 12.653C2.93255 12.8346 3.39926 12.8346 4.33268 12.8346H9.99935" stroke="white" stroke-width="2" stroke-linecap="round" stroke-linejoin="round"/>
</svg>
