<svg width="83" height="32" viewBox="0 0 83 32" fill="none" xmlns="http://www.w3.org/2000/svg">
<path d="M16.2886 32C25.1251 32 32.2886 24.8366 32.2886 16C32.2886 7.16344 25.1251 0 16.2886 0C7.45202 0 0.288574 7.16344 0.288574 16C0.288574 24.8366 7.45202 32 16.2886 32Z" fill="#E84142"/>
<path d="M21.9328 16.4158C22.4873 15.4581 23.3839 15.4581 23.9359 16.4158L27.3877 22.4757C27.9422 23.4328 27.4886 24.2139 26.3782 24.2139H19.4255C18.3296 24.2139 17.876 23.4328 18.4161 22.4757L21.9328 16.4158ZM15.2558 4.74956C15.8097 3.79246 16.6918 3.79246 17.2463 4.74956L18.0148 6.13757L19.8287 9.32496C20.0464 9.77459 20.1594 10.2677 20.1594 10.7672C20.1594 11.2668 20.0464 11.7599 19.8287 12.2095L13.7435 22.7527C13.4718 23.1751 13.1044 23.5275 12.6711 23.7814C12.2378 24.0352 11.7508 24.1834 11.2495 24.2139H6.19713C5.08861 24.2139 4.63498 23.4455 5.18766 22.4757L15.2558 4.74956Z" fill="white"/>
<circle cx="41.2886" cy="16" r="16" fill="#8247E5"/>
<path d="M47.2331 12.095C46.8106 11.8566 46.2674 11.8566 45.7846 12.095L42.4049 14.0624L40.1115 15.3144L36.7921 17.2818C36.3697 17.5203 35.8265 17.5203 35.3437 17.2818L32.7486 15.7317C32.3261 15.4933 32.0243 15.0163 32.0243 14.4798V11.4988C32.0243 11.0219 32.2657 10.545 32.7486 10.2469L35.3437 8.7564C35.7662 8.51793 36.3093 8.51793 36.7921 8.7564L39.3873 10.3065C39.8098 10.545 40.1115 11.0219 40.1115 11.5585V13.5259L42.4049 12.2143V10.1872C42.4049 9.7103 42.1635 9.23335 41.6807 8.93526L36.8525 6.1332C36.43 5.89473 35.8869 5.89473 35.4041 6.1332L30.4552 8.99488C29.9724 9.23335 29.731 9.7103 29.731 10.1872V15.7914C29.731 16.2683 29.9724 16.7453 30.4552 17.0433L35.3437 19.8454C35.7662 20.0839 36.3093 20.0839 36.7921 19.8454L40.1115 17.9376L42.4049 16.626L45.7243 14.7182C46.1467 14.4798 46.6899 14.4798 47.1727 14.7182L49.7678 16.2087C50.1903 16.4472 50.4921 16.9241 50.4921 17.4607V20.4416C50.4921 20.9185 50.2507 21.3955 49.7678 21.6936L47.2331 23.184C46.8106 23.4225 46.2674 23.4225 45.7846 23.184L43.1895 21.6936C42.767 21.4551 42.4652 20.9781 42.4652 20.4416V18.5338L40.1719 19.8454V21.8128C40.1719 22.2897 40.4133 22.7667 40.8961 23.0648L45.7846 25.8668C46.2071 26.1053 46.7502 26.1053 47.2331 25.8668L52.1216 23.0648C52.544 22.8263 52.8458 22.3494 52.8458 21.8128V16.1491C52.8458 15.6721 52.6044 15.1952 52.1216 14.8971L47.2331 12.095Z" fill="white"/>
<circle cx="66.2886" cy="16" r="16" fill="black"/>
<path d="M72.2354 7.15067L68.1173 13.262C67.8326 13.6782 68.3802 14.182 68.7745 13.8315L72.8268 10.3049C72.9363 10.2173 73.0896 10.283 73.0896 10.4363V21.4542C73.0896 21.6076 72.8925 21.6733 72.8049 21.5637L60.5384 6.88782C60.1442 6.40592 59.5746 6.14307 58.9394 6.14307H58.5013C57.3623 6.14307 56.4204 7.08495 56.4204 8.24589V23.7542C56.4204 24.9151 57.3623 25.857 58.5232 25.857C59.2461 25.857 59.9251 25.4846 60.3194 24.8494L64.4374 18.7381C64.7222 18.3219 64.1746 17.8181 63.7803 18.1686L59.728 21.6733C59.6184 21.7609 59.4651 21.6952 59.4651 21.5418V10.5458C59.4651 10.3925 59.6623 10.3268 59.7499 10.4363L72.0163 25.1123C72.4106 25.5942 73.002 25.857 73.6153 25.857H74.0534C75.2144 25.857 76.1563 24.9151 76.1563 23.7542V8.24589C76.1563 7.08495 75.2144 6.14307 74.0534 6.14307C73.3087 6.14307 72.6296 6.51544 72.2354 7.15067Z" fill="white"/>
</svg>
