<svg width="82" height="32" viewBox="0 0 82 32" fill="none" xmlns="http://www.w3.org/2000/svg">
<path d="M16 0C24.8362 0 32 7.16384 32 16C32 24.8362 24.8358 32 16 32C7.16416 32 0 24.8381 0 16C0 7.16192 7.16288 0 16 0Z" fill="#53AE94"/>
<path d="M17.9747 13.868V11.4879H23.4175V7.86133H8.59643V11.4879H14.04V13.8661C9.61595 14.0693 6.28955 14.9455 6.28955 15.9951C6.28955 17.0447 9.61755 17.9208 14.04 18.1253V25.7493H17.976V18.1247C22.392 17.9208 25.7116 17.0453 25.7116 15.9967C25.7116 14.948 22.392 14.0725 17.976 13.8687M17.976 17.4789V17.477C17.8649 17.484 17.2944 17.5183 16.024 17.5183C15.0083 17.5183 14.2937 17.4895 14.0419 17.4764V17.4796C10.1334 17.3064 7.21595 16.6258 7.21595 15.8114C7.21595 14.997 10.1337 14.3173 14.0419 14.1439V16.8015C14.2979 16.8191 15.03 16.8623 16.0406 16.8623C17.2543 16.8623 17.8646 16.8117 17.9766 16.8015V14.1439C21.8774 14.3176 24.7881 14.9989 24.7881 15.8104C24.7881 16.622 21.8761 17.3036 17.9766 17.4773" fill="white"/>
<path d="M41 32C49.8667 32 57 24.8667 57 16C57 7.13328 49.8667 0 41 0C32.1333 0 25 7.13328 25 16C25 24.8667 32.1333 32 41 32Z" fill="#2775CA"/>
<path d="M45.4001 18.5333C45.4001 16.2 44.0001 15.4 41.2001 15.0667C39.2001 14.8 38.8001 14.2667 38.8001 13.3333C38.8001 12.3999 39.4668 11.8 40.8001 11.8C42.0001 11.8 42.6668 12.2 43.0001 13.2C43.0668 13.4 43.2668 13.5333 43.4668 13.5333H44.5334C44.8001 13.5333 45.0001 13.3333 45.0001 13.0667V13C44.7334 11.5333 43.5334 10.4 42.0001 10.2667V8.66674C42.0001 8.40002 41.8001 8.20002 41.4668 8.1333H40.4668C40.2001 8.1333 40.0001 8.3333 39.9334 8.66674V10.2C37.9334 10.4667 36.6668 11.8 36.6668 13.4667C36.6668 15.6667 38.0001 16.5333 40.8001 16.8667C42.6668 17.2 43.2668 17.6 43.2668 18.6667C43.2668 19.7335 42.3334 20.4667 41.0668 20.4667C39.3334 20.4667 38.7334 19.7333 38.5334 18.7333C38.4668 18.4667 38.2668 18.3333 38.0668 18.3333H36.9334C36.6668 18.3333 36.4668 18.5333 36.4668 18.8V18.8667C36.7334 20.5333 37.8001 21.7333 40.0001 22.0667V23.6667C40.0001 23.9333 40.2001 24.1333 40.5334 24.2H41.5334C41.8001 24.2 42.0001 24 42.0668 23.6667V22.0667C44.0668 21.7333 45.4001 20.3333 45.4001 18.5333Z" fill="white"/>
<path d="M37.5998 25.5333C32.3998 23.6667 29.7331 17.8667 31.6666 12.7333C32.6666 9.93331 34.8666 7.80003 37.5998 6.80003C37.8666 6.66675 37.9998 6.46675 37.9998 6.13331V5.20003C37.9998 4.93331 37.8666 4.73331 37.5998 4.66675C37.5331 4.66675 37.3998 4.66675 37.3331 4.73331C30.9998 6.73331 27.5331 13.4667 29.5331 19.8C30.7331 23.5333 33.5998 26.4 37.3331 27.6C37.5998 27.7333 37.8666 27.6 37.9331 27.3333C37.9998 27.2667 37.9998 27.2 37.9998 27.0667V26.1333C37.9998 25.9333 37.7998 25.6667 37.5998 25.5333ZM44.6666 4.73331C44.3998 4.60003 44.1331 4.73331 44.0666 5.00003C43.9998 5.06675 43.9998 5.13331 43.9998 5.26675V6.20003C43.9998 6.46675 44.1998 6.73331 44.3998 6.86675C49.5998 8.73331 52.2666 14.5333 50.3331 19.6667C49.3331 22.4667 47.1331 24.6 44.3998 25.6C44.1331 25.7333 43.9998 25.9333 43.9998 26.2667V27.2C43.9998 27.4667 44.1331 27.6667 44.3998 27.7333C44.4666 27.7333 44.5998 27.7333 44.6666 27.6667C50.9998 25.6667 54.4666 18.9333 52.4666 12.6C51.2666 8.80003 48.3331 5.93331 44.6666 4.73331Z" fill="white"/>
<circle cx="66" cy="16" r="16" fill="#F0B90B"/>
<path d="M65.9999 2.17627L69.4247 5.67312L60.8008 14.2712L57.376 10.8567L65.9999 2.17627Z" fill="white" stroke="#F0B90B"/>
<path d="M71.199 7.35986L74.6239 10.8567L60.8008 24.6384L57.376 21.2238L71.199 7.35986Z" fill="white" stroke="#F0B90B"/>
<path d="M55.6016 12.5435L59.0264 16.0403L55.6016 19.4549L52.1768 16.0403L55.6016 12.5435Z" fill="white" stroke="#F0B90B"/>
<path d="M76.3983 12.5435L79.8231 16.0403L66 29.822L62.5752 26.4074L76.3983 12.5435Z" fill="white" stroke="#F0B90B"/>
</svg>
