<svg width="102" height="32" viewBox="0 0 102 32" fill="none" xmlns="http://www.w3.org/2000/svg">
<path d="M21.9104 8.26293L21.1782 8.99513C22.9253 10.9058 23.8942 13.401 23.8942 15.99C23.8942 18.5791 22.9253 21.0743 21.1782 22.985L21.9104 23.7172C23.8534 21.6096 24.9321 18.848 24.9321 15.9815C24.9321 13.115 23.8534 10.3534 21.9104 8.24585V8.26293Z" fill="#5A5564"/>
<path d="M6.51246 8.32646C8.42309 6.57932 10.9184 5.61043 13.5075 5.61043C16.0964 5.61043 18.5917 6.57932 20.5024 8.32646L21.2345 7.59427C19.1269 5.65126 16.3655 4.57251 13.4988 4.57251C10.6323 4.57251 7.87074 5.65126 5.76318 7.59427L6.51246 8.32646Z" fill="#5A5564"/>
<path d="M5.8267 22.9923C4.08162 21.0822 3.11402 18.5883 3.11402 16.0011C3.11402 13.4138 4.08162 10.92 5.8267 9.00979L5.0945 8.27759C3.15149 10.3851 2.07275 13.1467 2.07275 16.0133C2.07275 18.8798 3.15149 21.6414 5.0945 23.749L5.8267 22.9923Z" fill="#5A5564"/>
<path d="M20.4922 23.6687C18.5815 25.4158 16.0862 26.3847 13.4972 26.3847C10.9082 26.3847 8.41285 25.4158 6.50222 23.6687L5.77002 24.4008C7.87758 26.3439 10.6392 27.4226 13.5058 27.4226C16.3723 27.4226 19.1338 26.3439 21.2414 24.4008L20.4922 23.6687Z" fill="#5A5564"/>
<path d="M18.1232 13.5569C17.9766 12.0289 16.6588 11.5164 14.9918 11.3602V9.25635H13.703V11.3211C13.3638 11.3211 13.0173 11.3211 12.6732 11.3211V9.25635H11.3942V11.3748H8.78027V12.7538C8.78027 12.7538 9.73213 12.7367 9.71749 12.7538C9.88911 12.7349 10.0614 12.7834 10.198 12.889C10.3345 12.9947 10.4248 13.1492 10.4497 13.3201V19.1191C10.446 19.1794 10.4303 19.2382 10.4035 19.2923C10.3766 19.3465 10.3392 19.3946 10.2935 19.4339C10.2486 19.4741 10.196 19.5047 10.139 19.5239C10.0819 19.5433 10.0216 19.5509 9.96155 19.5462C9.97863 19.5609 9.02434 19.5462 9.02434 19.5462L8.78027 21.0862H11.3698V23.2389H12.6585V21.1179H13.6885V23.2291H14.9796V21.1009C17.1566 20.9691 18.6748 20.4322 18.865 18.3942C19.0189 16.7541 18.2476 16.0219 17.015 15.7266C17.7644 15.3581 18.2281 14.6746 18.1232 13.5569ZM16.317 18.1403C16.317 19.7414 13.5737 19.5583 12.7 19.5583V16.7174C13.5737 16.7199 16.317 16.4685 16.317 18.1403ZM15.719 14.1377C15.719 15.6021 13.4297 15.4239 12.7024 15.4239V12.8417C13.4297 12.8417 15.719 12.6123 15.719 14.1377Z" fill="#F09242"/>
<path d="M13.4975 29.3334C10.8605 29.3329 8.283 28.5506 6.09072 27.0853C3.89844 25.6201 2.18984 23.5377 1.18098 21.1014C0.172118 18.6651 -0.0917223 15.9845 0.422824 13.3983C0.937371 10.8121 2.2072 8.43655 4.07174 6.572C5.9363 4.70744 8.31185 3.43762 10.898 2.92307C13.4843 2.40852 16.1649 2.67236 18.6012 3.68123C21.0375 4.69009 23.1199 6.39868 24.5851 8.59096C26.0504 10.7832 26.8327 13.3607 26.8332 15.9977C26.8335 17.749 26.4888 19.4833 25.8187 21.1014C25.1487 22.7195 24.1664 24.1898 22.9279 25.4282C21.6895 26.6666 20.2193 27.6489 18.6012 28.319C16.9831 28.989 15.2488 29.3337 13.4975 29.3334ZM13.4975 3.70648C11.068 3.7084 8.69374 4.43051 6.67466 5.78149C4.6556 7.13248 3.08234 9.05173 2.15377 11.2966C1.22521 13.5415 0.983011 16.0114 1.45778 18.3939C1.93256 20.7765 3.103 22.9647 4.82117 24.6822C6.53933 26.3997 8.7281 27.5693 11.1108 28.0431C13.4936 28.5169 15.9632 28.2737 18.2077 27.3443C20.4524 26.4149 22.3709 24.8409 23.7212 22.8211C25.0713 20.8015 25.7925 18.427 25.7935 15.9977C25.7941 14.383 25.4764 12.784 24.8587 11.2921C24.2409 9.80029 23.3352 8.44485 22.1932 7.30332C21.0512 6.16179 19.6953 5.25655 18.2033 4.63938C16.7112 4.0222 15.1121 3.70519 13.4975 3.70648Z" fill="#282138"/>
<path d="M47.6482 9.66163L43.4944 5.50779C41.1252 2.52317 37.4636 0.615479 33.3713 0.615479C26.2329 0.615479 20.4482 6.40009 20.4482 13.5386C20.4482 17.6309 22.3559 21.2924 25.3405 23.6616L29.4944 27.8155C31.7405 30.0616 35.3405 30.0616 37.5867 27.8155L47.6482 17.7539C49.8944 15.5386 49.8944 11.9078 47.6482 9.66163Z" fill="#ED1E79"/>
<path d="M33.5561 30.1231C31.8638 30.1231 30.2638 29.4769 29.0638 28.2769L24.9099 24.1231C21.6792 21.5385 19.833 17.6615 19.833 13.5385C19.833 6.06154 25.8945 0 33.3715 0C37.4945 0 41.3715 1.84615 43.9561 5.07692L48.0792 9.23077C49.2792 10.4308 49.9253 12.0308 49.9253 13.7231C49.9253 15.4154 49.2792 17.0154 48.0792 18.2154L38.0176 28.2462C36.8176 29.4462 35.2484 30.1231 33.5561 30.1231ZM33.3715 1.23077C26.5715 1.23077 21.0638 6.73846 21.0638 13.5385C21.0638 17.2923 22.7561 20.8308 25.7099 23.1692L25.7715 23.2308L29.9253 27.3846C30.8792 28.3385 32.1715 28.8923 33.5253 28.8923C34.8792 28.8923 36.1715 28.3692 37.1253 27.3846L47.2176 17.3231C48.1715 16.3692 48.7253 15.0769 48.7253 13.7231C48.7253 12.3692 48.2022 11.0769 47.2176 10.1231L43.0022 5.87692C40.6638 2.92308 37.1253 1.23077 33.3715 1.23077Z" fill="black"/>
<path d="M21.0758 15.2957L20.2056 16.166L27.8205 23.7809L28.6908 22.9107L21.0758 15.2957Z" fill="black"/>
<path d="M21.0758 10.6805L20.2056 11.5508L27.8205 19.1657L28.6908 18.2954L21.0758 10.6805Z" fill="black"/>
<path d="M38.2942 31.3847C45.4314 31.3847 51.2172 25.5989 51.2172 18.4617C51.2172 11.3244 45.4314 5.53857 38.2942 5.53857C31.157 5.53857 25.3711 11.3244 25.3711 18.4617C25.3711 25.5989 31.157 31.3847 38.2942 31.3847Z" fill="white"/>
<path d="M38.2943 32C30.8174 32 24.7559 25.9385 24.7559 18.4616C24.7559 10.9846 30.8174 4.9231 38.2943 4.9231C45.7712 4.9231 51.8328 10.9846 51.8328 18.4616C51.8328 25.9385 45.7712 32 38.2943 32ZM38.2943 6.15386C31.4943 6.15386 25.9866 11.6616 25.9866 18.4616C25.9866 25.2616 31.4943 30.7692 38.2943 30.7692C45.0943 30.7692 50.602 25.2616 50.602 18.4616C50.602 11.6616 45.0943 6.15386 38.2943 6.15386Z" fill="black"/>
<path d="M38.2944 28.3078C43.7323 28.3078 48.1405 23.8995 48.1405 18.4616C48.1405 13.0238 43.7323 8.61548 38.2944 8.61548C32.8565 8.61548 28.4482 13.0238 28.4482 18.4616C28.4482 23.8995 32.8565 28.3078 38.2944 28.3078Z" fill="white"/>
<path d="M38.2945 28.9231C32.5407 28.9231 27.833 24.2154 27.833 18.4615C27.833 12.7077 32.5407 8 38.2945 8C44.0484 8 48.7561 12.7077 48.7561 18.4615C48.7561 24.2154 44.0484 28.9231 38.2945 28.9231ZM38.2945 9.23077C33.2176 9.23077 29.0638 13.3846 29.0638 18.4615C29.0638 23.5385 33.2176 27.6923 38.2945 27.6923C43.3715 27.6923 47.5253 23.5385 47.5253 18.4615C47.5253 13.3846 43.3715 9.23077 38.2945 9.23077Z" fill="black"/>
<path d="M36.0178 21.5385H33.2178V16.0308H35.9255V17.0461H34.2639V18.2769H35.8024V19.2923H34.2639V20.5538H36.0178V21.5385Z" fill="black"/>
<path d="M40.0795 17.0461H38.7564V21.5385H37.6795V17.0461H36.3564V16.0308H40.0795V17.0461Z" fill="black"/>
<path d="M44.7564 21.5385H43.7102V19.2923H41.7717V21.5385H40.7256V16.0308H41.7717V18.2154H43.7102V16.0308H44.7564V21.5385Z" fill="black"/>
<path d="M60.833 32C69.6696 32 76.833 24.8366 76.833 16C76.833 7.16344 69.6696 0 60.833 0C51.9965 0 44.833 7.16344 44.833 16C44.833 24.8366 51.9965 32 60.833 32Z" fill="#E84142"/>
<path d="M66.4772 16.4158C67.0318 15.4581 67.9283 15.4581 68.4804 16.4158L71.9321 22.4757C72.4867 23.4328 72.033 24.2139 70.9226 24.2139H63.97C62.8741 24.2139 62.4204 23.4328 62.9605 22.4757L66.4772 16.4158ZM59.8002 4.74956C60.3542 3.79246 61.2362 3.79246 61.7908 4.74956L62.5592 6.13757L64.3731 9.32496C64.5908 9.77459 64.7039 10.2677 64.7039 10.7672C64.7039 11.2668 64.5908 11.7599 64.3731 12.2095L58.2879 22.7527C58.0162 23.1751 57.6489 23.5275 57.2155 23.7814C56.7822 24.0352 56.2952 24.1834 55.7939 24.2139H50.7416C49.633 24.2139 49.1794 23.4455 49.7321 22.4757L59.8002 4.74956Z" fill="white"/>
<path d="M85.833 0C94.6692 0 101.833 7.16384 101.833 16C101.833 24.8362 94.6688 32 85.833 32C76.9972 32 69.833 24.8381 69.833 16C69.833 7.16192 76.9959 0 85.833 0Z" fill="#53AE94"/>
<path d="M87.8077 13.868V11.4879H93.2506V7.86133H78.4294V11.4879H83.873V13.8661C79.449 14.0693 76.1226 14.9455 76.1226 15.9951C76.1226 17.0447 79.4506 17.9208 83.873 18.1253V25.7493H87.809V18.1247C92.225 17.9208 95.5446 17.0453 95.5446 15.9967C95.5446 14.948 92.225 14.0725 87.809 13.8687M87.809 17.4789V17.477C87.6979 17.484 87.1274 17.5183 85.857 17.5183C84.8413 17.5183 84.1267 17.4895 83.8749 17.4764V17.4796C79.9664 17.3064 77.049 16.6258 77.049 15.8114C77.049 14.997 79.9667 14.3173 83.8749 14.1439V16.8015C84.1309 16.8191 84.863 16.8623 85.8736 16.8623C87.0874 16.8623 87.6976 16.8117 87.8096 16.8015V14.1439C91.7104 14.3176 94.6211 14.9989 94.6211 15.8104C94.6211 16.622 91.7091 17.3036 87.8096 17.4773" fill="white"/>
</svg>
