<svg width="51" height="34" viewBox="0 0 51 34" fill="none" xmlns="http://www.w3.org/2000/svg">
<path fill-rule="evenodd" clip-rule="evenodd" d="M38.3002 19.6313C38.9052 19.6313 39.3956 20.1218 39.3956 20.7268V29.2978L41.3386 27.3548C41.7664 26.927 42.4601 26.927 42.8879 27.3548C43.3157 27.7826 43.3157 28.4762 42.8879 28.904L39.0748 32.7171C38.647 33.1449 37.9534 33.1449 37.5255 32.7171L33.7125 28.904C33.2846 28.4762 33.2846 27.7826 33.7125 27.3548C34.1403 26.927 34.8339 26.927 35.2617 27.3548L37.2047 29.2978V20.7268C37.2047 20.1218 37.6951 19.6313 38.3002 19.6313Z" fill="#FF2F56"/>
<path fill-rule="evenodd" clip-rule="evenodd" d="M3.17726 22.308C2.66479 21.6386 2.45559 20.736 2.45559 19.9112V6.20502C2.45559 4.54864 2.89159 3.75087 3.38657 3.32954C3.91812 2.87709 4.76271 2.64356 6.01706 2.64356H44.7013C46.8249 2.64356 47.5346 3.16565 47.8291 3.58912C48.1981 4.11967 48.2628 4.91714 48.2628 6.20502V19.9112C48.2628 21.4866 47.6734 22.311 47.0235 22.7804C46.3147 23.2922 45.4 23.4726 44.7013 23.4726H41.3674C40.7624 23.4726 40.2719 23.9631 40.2719 24.5681C40.2719 25.1731 40.7624 25.6636 41.3674 25.6636H44.7014C45.6961 25.6636 47.1099 25.4206 48.3062 24.5565C49.5614 23.65 50.4537 22.1459 50.4537 19.9112V6.19998C50.4537 5.05411 50.4537 3.52587 49.6279 2.33827C48.7264 1.04185 47.1076 0.452614 44.7013 0.452614H6.01706C4.57253 0.452614 3.08865 0.705945 1.96645 1.66116C0.807683 2.6475 0.264648 4.1782 0.264648 6.20502V19.9112C0.264648 21.0444 0.542304 22.4703 1.4375 23.6398C2.37091 24.8592 3.87284 25.6636 6.01706 25.6636H35.0303C35.6353 25.6636 36.1257 25.1731 36.1257 24.5681C36.1257 23.9631 35.6353 23.4726 35.0303 23.4726H6.01706C4.47805 23.4726 3.65152 22.9276 3.17726 22.308Z" fill="#C1C1C1"/>
<path d="M12.9434 8.56396H16.4297C17.7878 8.56396 18.7949 8.76676 19.4512 9.17236C20.112 9.5734 20.4424 10.2 20.4424 11.0522C20.4424 11.6128 20.2988 12.0913 20.0117 12.4878C19.7246 12.8843 19.3464 13.1395 18.877 13.2534V13.3218C19.4967 13.4858 19.9456 13.7593 20.2236 14.1421C20.5016 14.5249 20.6406 15.0216 20.6406 15.6323C20.6406 16.5392 20.2988 17.2547 19.6152 17.7788C18.9362 18.2983 18.0088 18.5581 16.833 18.5581H12.9434V8.56396ZM15.6436 12.3989H16.457C16.8444 12.3989 17.1429 12.3192 17.3525 12.1597C17.5667 12.0002 17.6738 11.7632 17.6738 11.4487C17.6738 10.8882 17.25 10.6079 16.4023 10.6079H15.6436V12.3989ZM15.6436 14.3745V16.4731H16.5938C17.4368 16.4731 17.8584 16.1177 17.8584 15.4067C17.8584 15.0741 17.7445 14.8188 17.5166 14.6411C17.2933 14.4634 16.9674 14.3745 16.5391 14.3745H15.6436ZM31.8926 18.5581H28.3516L24.7012 11.5171H24.6396C24.7262 12.6245 24.7695 13.4699 24.7695 14.0532V18.5581H22.377V8.56396H25.9043L29.541 15.5093H29.582C29.5182 14.5021 29.4863 13.6932 29.4863 13.0825V8.56396H31.8926V18.5581ZM34.0527 18.5581V8.56396H36.7666V18.5581H34.0527Z" fill="black"/>
</svg>
