<svg width="51" height="33" viewBox="0 0 51 33" fill="none" xmlns="http://www.w3.org/2000/svg">
<path fill-rule="evenodd" clip-rule="evenodd" d="M38.3002 19.5254C38.9052 19.5254 39.3956 20.0159 39.3956 20.6209V29.1918L41.3386 27.2488C41.7664 26.821 42.4601 26.821 42.8879 27.2488C43.3157 27.6766 43.3157 28.3703 42.8879 28.7981L39.0748 32.6112C38.647 33.039 37.9534 33.039 37.5255 32.6112L33.7125 28.7981C33.2846 28.3703 33.2846 27.6766 33.7125 27.2488C34.1403 26.821 34.8339 26.821 35.2617 27.2488L37.2047 29.1918V20.6209C37.2047 20.0159 37.6951 19.5254 38.3002 19.5254Z" fill="#FF2F56"/>
<path fill-rule="evenodd" clip-rule="evenodd" d="M3.17726 22.2021C2.66479 21.5326 2.45559 20.63 2.45559 19.8052V6.09907C2.45559 4.44268 2.89159 3.64491 3.38657 3.22359C3.91812 2.77114 4.76271 2.5376 6.01706 2.5376H44.7013C46.8249 2.5376 47.5346 3.05969 47.8291 3.48316C48.1981 4.01371 48.2628 4.81118 48.2628 6.09907V19.8052C48.2628 21.3807 47.6734 22.205 47.0235 22.6744C46.3147 23.1863 45.4 23.3667 44.7013 23.3667H41.3674C40.7624 23.3667 40.2719 23.8571 40.2719 24.4621C40.2719 25.0672 40.7624 25.5576 41.3674 25.5576H44.7014C45.6961 25.5576 47.1099 25.3146 48.3062 24.4506C49.5614 23.544 50.4537 22.0399 50.4537 19.8052V6.09402C50.4537 4.94816 50.4537 3.41991 49.6279 2.23231C48.7264 0.93589 47.1076 0.346657 44.7013 0.346657H6.01706C4.57253 0.346657 3.08865 0.599988 1.96645 1.55521C0.807683 2.54154 0.264648 4.07224 0.264648 6.09907V19.8052C0.264648 20.9385 0.542304 22.3643 1.4375 23.5338C2.37091 24.7532 3.87284 25.5576 6.01706 25.5576H35.0303C35.6353 25.5576 36.1257 25.0672 36.1257 24.4621C36.1257 23.8571 35.6353 23.3667 35.0303 23.3667H6.01706C4.47805 23.3667 3.65152 22.8217 3.17726 22.2021Z" fill="#C1C1C1"/>
<path d="M15.3779 18.4521V8.45801H18.0781V16.2715H21.9268V18.4521H15.3779ZM27.9766 10.5293C27.334 10.5293 26.8327 10.7936 26.4727 11.3223C26.1126 11.8464 25.9326 12.571 25.9326 13.4961C25.9326 15.4193 26.6641 16.3809 28.127 16.3809C28.569 16.3809 28.9974 16.3193 29.4121 16.1963C29.8268 16.0732 30.2438 15.9251 30.6631 15.752V18.0352C29.8291 18.4043 28.8857 18.5889 27.833 18.5889C26.3245 18.5889 25.167 18.1514 24.3604 17.2764C23.5583 16.4014 23.1572 15.1367 23.1572 13.4824C23.1572 12.4479 23.3509 11.5387 23.7383 10.7549C24.1302 9.97103 24.6908 9.36947 25.4199 8.9502C26.1536 8.52637 27.015 8.31445 28.0039 8.31445C29.084 8.31445 30.1162 8.54915 31.1006 9.01855L30.2734 11.1445C29.9043 10.9714 29.5352 10.8255 29.166 10.707C28.7969 10.5885 28.4004 10.5293 27.9766 10.5293ZM32.6182 18.4521V8.45801H35.332V18.4521H32.6182Z" fill="black"/>
</svg>
