<svg width="51" height="33" viewBox="0 0 51 33" fill="none" xmlns="http://www.w3.org/2000/svg">
<path fill-rule="evenodd" clip-rule="evenodd" d="M38.3002 19.2227C38.9052 19.2227 39.3956 19.7131 39.3956 20.3181V28.8891L41.3386 26.9461C41.7664 26.5183 42.4601 26.5183 42.8879 26.9461C43.3157 27.3739 43.3157 28.0675 42.8879 28.4953L39.0748 32.3084C38.647 32.7362 37.9534 32.7362 37.5255 32.3084L33.7125 28.4953C33.2846 28.0675 33.2846 27.3739 33.7125 26.9461C34.1403 26.5183 34.8339 26.5183 35.2617 26.9461L37.2047 28.8891V20.3181C37.2047 19.7131 37.6951 19.2227 38.3002 19.2227Z" fill="#FF2F56"/>
<path fill-rule="evenodd" clip-rule="evenodd" d="M3.17726 21.8994C2.66479 21.2299 2.45559 20.3273 2.45559 19.5025V5.79633C2.45559 4.13995 2.89159 3.34218 3.38657 2.92085C3.91812 2.4684 4.76271 2.23487 6.01706 2.23487H44.7013C46.8249 2.23487 47.5346 2.75695 47.8291 3.18043C48.1981 3.71098 48.2628 4.50845 48.2628 5.79633V19.5025C48.2628 21.0779 47.6734 21.9023 47.0235 22.3717C46.3147 22.8835 45.4 23.0639 44.7013 23.0639H41.3674C40.7624 23.0639 40.2719 23.5544 40.2719 24.1594C40.2719 24.7644 40.7624 25.2549 41.3674 25.2549H44.7014C45.6961 25.2549 47.1099 25.0119 48.3062 24.1478C49.5614 23.2413 50.4537 21.7372 50.4537 19.5025V5.79129C50.4537 4.64542 50.4537 3.11717 49.6279 1.92958C48.7264 0.633155 47.1076 0.0439224 44.7013 0.0439224H6.01706C4.57253 0.0439224 3.08865 0.297254 1.96645 1.25247C0.807683 2.23881 0.264648 3.76951 0.264648 5.79633V19.5025C0.264648 20.6357 0.542304 22.0616 1.4375 23.2311C2.37091 24.4505 3.87284 25.2549 6.01706 25.2549H35.0303C35.6353 25.2549 36.1257 24.7644 36.1257 24.1594C36.1257 23.5544 35.6353 23.0639 35.0303 23.0639H6.01706C4.47805 23.0639 3.65152 22.5189 3.17726 21.8994Z" fill="#C1C1C1"/>
<path d="M14.3115 18.1494L12.2676 10.9512H12.2061C12.3018 12.1771 12.3496 13.1296 12.3496 13.8086V18.1494H9.95703V8.15527H13.5527L15.6377 15.251H15.6924L17.7363 8.15527H21.3389V18.1494H18.8574V13.7676C18.8574 13.5397 18.8597 13.2868 18.8643 13.0088C18.8734 12.7308 18.9053 12.0495 18.96 10.9648H18.8984L16.8818 18.1494H14.3115ZM34.2861 18.1494H31.0938L30.1367 13.7949C30.0911 13.6126 30.0182 13.2503 29.918 12.708C29.8223 12.1657 29.7516 11.7122 29.7061 11.3477C29.6696 11.6439 29.6104 12.013 29.5283 12.4551C29.4463 12.8926 29.3643 13.2959 29.2822 13.665C29.2048 14.0342 28.8743 15.529 28.291 18.1494H25.0986L22.624 8.15527H25.2285L26.3154 13.166C26.5615 14.2734 26.7301 15.1553 26.8213 15.8115C26.8805 15.3467 26.9854 14.7155 27.1357 13.918C27.2907 13.1204 27.4342 12.4596 27.5664 11.9355L28.4482 8.15527H30.9502L31.8047 11.9355C31.9505 12.5417 32.0986 13.2412 32.249 14.0342C32.3994 14.8271 32.4997 15.4196 32.5498 15.8115C32.609 15.3057 32.7708 14.4284 33.0352 13.1797L34.1426 8.15527H36.7471L34.2861 18.1494ZM38.0391 18.1494V8.15527H40.7529V18.1494H38.0391Z" fill="black"/>
</svg>
