<svg width="51" height="34" viewBox="0 0 51 34" fill="none" xmlns="http://www.w3.org/2000/svg">
<path d="M24.5771 18.7559C23.4365 18.7038 22.3376 18.4486 21.2803 17.9902V15.3965C21.8844 15.7038 22.5407 15.9616 23.249 16.1699C23.9574 16.373 24.5798 16.4746 25.1162 16.4746C25.5589 16.4746 25.8818 16.4225 26.085 16.3184C26.2933 16.209 26.3975 16.0293 26.3975 15.7793C26.3975 15.6074 26.3219 15.4616 26.1709 15.3418C26.0251 15.222 25.7777 15.0866 25.4287 14.9355C25.085 14.7845 24.6188 14.6022 24.0303 14.3887C23.3688 14.1439 22.835 13.8704 22.4287 13.5684C22.0225 13.2611 21.7256 12.9199 21.5381 12.5449C21.3558 12.1647 21.2646 11.6934 21.2646 11.1309C21.2646 10.2715 21.5407 9.59961 22.0928 9.11523C22.6449 8.63086 23.473 8.33138 24.5771 8.2168V7.14648H26.1943V8.20117C27.2308 8.25846 28.2751 8.51367 29.3271 8.9668L28.3975 11.1934C27.3089 10.7038 26.3271 10.459 25.4521 10.459C25.0355 10.459 24.7412 10.5111 24.5693 10.6152C24.4027 10.7142 24.3193 10.8626 24.3193 11.0605C24.3193 11.2324 24.3792 11.3757 24.499 11.4902C24.624 11.5996 24.8376 11.7246 25.1396 11.8652C25.4417 12.0007 25.861 12.1595 26.3975 12.3418C27.486 12.7272 28.2673 13.1673 28.7412 13.6621C29.2152 14.1517 29.4521 14.7845 29.4521 15.5605C29.4521 16.4355 29.1735 17.1465 28.6162 17.6934C28.0641 18.2402 27.2568 18.5788 26.1943 18.709V20.2168H24.5771V18.7559Z" fill="black"/>
<path fill-rule="evenodd" clip-rule="evenodd" d="M38.3002 19.9199C38.9052 19.9199 39.3956 20.4104 39.3956 21.0154V29.5864L41.3386 27.6434C41.7664 27.2156 42.4601 27.2156 42.8879 27.6434C43.3157 28.0712 43.3157 28.7648 42.8879 29.1926L39.0748 33.0057C38.647 33.4335 37.9534 33.4335 37.5255 33.0057L33.7125 29.1926C33.2846 28.7648 33.2846 28.0712 33.7125 27.6434C34.1403 27.2156 34.8339 27.2156 35.2617 27.6434L37.2047 29.5864V21.0154C37.2047 20.4104 37.6951 19.9199 38.3002 19.9199Z" fill="#FF2F56"/>
<path fill-rule="evenodd" clip-rule="evenodd" d="M3.17726 22.5966C2.66479 21.9271 2.45559 21.0245 2.45559 20.1997V6.4936C2.45559 4.83722 2.89159 4.03945 3.38657 3.61812C3.91812 3.16567 4.76271 2.93213 6.01706 2.93213H44.7013C46.8249 2.93213 47.5346 3.45422 47.8291 3.87769C48.1981 4.40824 48.2628 5.20572 48.2628 6.4936V20.1997C48.2628 21.7752 47.6734 22.5996 47.0235 23.0689C46.3147 23.5808 45.4 23.7612 44.7013 23.7612H41.3674C40.7624 23.7612 40.2719 24.2517 40.2719 24.8567C40.2719 25.4617 40.7624 25.9521 41.3674 25.9521H44.7014C45.6961 25.9521 47.1099 25.7091 48.3062 24.8451C49.5614 23.9386 50.4537 22.4345 50.4537 20.1997V6.48855C50.4537 5.34269 50.4537 3.81444 49.6279 2.62684C48.7264 1.33042 47.1076 0.741188 44.7013 0.741188H6.01706C4.57253 0.741188 3.08865 0.99452 1.96645 1.94974C0.807683 2.93608 0.264648 4.46677 0.264648 6.4936V20.1997C0.264648 21.333 0.542304 22.7589 1.4375 23.9284C2.37091 25.1477 3.87284 25.9521 6.01706 25.9521H35.0303C35.6353 25.9521 36.1257 25.4617 36.1257 24.8567C36.1257 24.2517 35.6353 23.7612 35.0303 23.7612H6.01706C4.47805 23.7612 3.65152 23.2162 3.17726 22.5966Z" fill="#C1C1C1"/>
</svg>
