<svg width="52" height="52" viewBox="0 0 52 52" fill="none" xmlns="http://www.w3.org/2000/svg">
<path d="M51.7765 26.0994C51.7765 40.3358 40.2357 51.8766 25.9993 51.8766C11.763 51.8766 0.222168 40.3358 0.222168 26.0994C0.222168 11.8631 11.763 0.322266 25.9993 0.322266C40.2357 0.322266 51.7765 11.8631 51.7765 26.0994Z" fill="#FEEAEE"/>
<path fill-rule="evenodd" clip-rule="evenodd" d="M25.8399 9.16797C26.2708 9.16797 26.6201 9.51727 26.6201 9.94816V14.9205H33.366C34.2722 14.9042 35.5751 15.1978 36.6705 16.0298C37.8053 16.8918 38.6738 18.3013 38.6738 20.3912V22.1348H40.496C41.0751 22.1348 41.5824 22.435 41.9217 22.7766C42.2602 23.1175 42.5546 23.6237 42.5546 24.1933V31.2246C42.5546 31.8814 42.1707 32.3962 41.8199 32.7066C41.4831 33.0047 40.986 33.2832 40.496 33.2832H38.6738V35.2425C38.6738 35.3032 38.6667 35.3636 38.6527 35.4226C38.5259 35.9572 38.2218 36.7404 37.6965 37.4085C37.1653 38.0839 36.3414 38.7166 35.1998 38.7166H18.3064C17.3785 38.7166 16.1987 38.543 15.2197 38.0546C14.2215 37.5566 13.3257 36.6615 13.3257 35.2425V33.2832H11.5034C10.8263 33.2832 10.3069 32.9226 9.98348 32.5442C9.67494 32.1832 9.44482 31.6905 9.44482 31.2246V24.1933C9.44482 23.5254 9.68197 22.971 10.1278 22.599C10.5491 22.2473 11.0659 22.1348 11.5034 22.1348H13.3257V20.2733C13.1978 19.2457 13.6149 17.9408 14.4041 16.9055C15.2327 15.8185 16.5531 14.9205 18.3064 14.9205H25.0597V9.94816C25.0597 9.51727 25.409 9.16797 25.8399 9.16797ZM13.3257 23.6951H11.5034C11.3101 23.6951 11.1876 23.7469 11.1275 23.797C11.0918 23.8268 11.0052 23.9116 11.0052 24.1933V31.2206C11.0052 31.2206 11.0091 31.2534 11.0354 31.3154C11.0645 31.3842 11.1103 31.461 11.1697 31.5304C11.2937 31.6756 11.4134 31.7228 11.5034 31.7228H13.3257V23.6951ZM38.6738 31.7228H40.4771C40.4854 31.7207 40.5108 31.7137 40.5533 31.6938C40.624 31.6606 40.7076 31.6073 40.7858 31.5382C40.9625 31.3818 40.9942 31.2574 40.9942 31.2246V24.1933C40.9942 24.1557 40.9599 24.0226 40.8145 23.8761C40.6697 23.7304 40.5379 23.6951 40.496 23.6951H38.6738V31.7228ZM35.7267 17.2724C34.942 16.6764 33.9894 16.4686 33.3892 16.4808C33.384 16.4809 33.3787 16.4809 33.3735 16.4809H18.3064C17.1377 16.4809 16.2433 17.0667 15.645 17.8515C15.023 18.6675 14.8017 19.5909 14.8777 20.1072C14.8833 20.1448 14.8861 20.1828 14.8861 20.2209V35.2425C14.8861 35.869 15.2397 36.3208 15.9163 36.6584C16.6122 37.0055 17.5326 37.1562 18.3064 37.1562H35.1998C35.7019 37.1562 36.1184 36.8909 36.4699 36.4439C36.8011 36.0227 37.0152 35.5077 37.1134 35.1452V20.3912C37.1134 18.7918 36.4752 17.8409 35.7267 17.2724Z" fill="#FF2F56"/>
<path fill-rule="evenodd" clip-rule="evenodd" d="M20.4893 32.1633C20.4893 31.7373 20.8347 31.3919 21.2607 31.3919H30.598C31.024 31.3919 31.3693 31.7373 31.3693 32.1633C31.3693 32.5893 31.024 32.9347 30.598 32.9347H21.2607C20.8347 32.9347 20.4893 32.5893 20.4893 32.1633Z" fill="#FF2F56"/>
<path fill-rule="evenodd" clip-rule="evenodd" d="M18.5364 21.989C18.8376 21.6877 19.3261 21.6877 19.6273 21.989L22.4424 24.8041C22.7437 25.1053 22.7437 25.5937 22.4424 25.895C22.1412 26.1962 21.6528 26.1962 21.3515 25.895L18.5364 23.0798C18.2352 22.7786 18.2352 22.2902 18.5364 21.989Z" fill="#FF2F56"/>
<path fill-rule="evenodd" clip-rule="evenodd" d="M18.5365 25.8952C18.2353 25.594 18.2353 25.1056 18.5365 24.8044L21.3516 21.9892C21.6529 21.688 22.1413 21.688 22.4425 21.9892C22.7438 22.2905 22.7438 22.7789 22.4425 23.0801L19.6274 25.8952C19.3262 26.1965 18.8378 26.1965 18.5365 25.8952Z" fill="#FF2F56"/>
<path fill-rule="evenodd" clip-rule="evenodd" d="M29.4161 21.989C29.7173 21.6877 30.2057 21.6877 30.507 21.989L33.3221 24.8041C33.6233 25.1053 33.6233 25.5937 33.3221 25.895C33.0208 26.1962 32.5324 26.1962 32.2312 25.895L29.4161 23.0798C29.1148 22.7786 29.1148 22.2902 29.4161 21.989Z" fill="#FF2F56"/>
<path fill-rule="evenodd" clip-rule="evenodd" d="M29.4162 25.8952C29.1149 25.594 29.1149 25.1056 29.4162 24.8044L32.2313 21.9892C32.5325 21.688 33.021 21.688 33.3222 21.9892C33.6234 22.2905 33.6234 22.7789 33.3222 23.0801L30.5071 25.8952C30.2058 26.1965 29.7174 26.1965 29.4162 25.8952Z" fill="#FF2F56"/>
</svg>
