<svg width="20" height="20" viewBox="0 0 20 20" fill="none" xmlns="http://www.w3.org/2000/svg">
<path d="M11.145 0.42016C10.8356 0.15034 10.4259 0 10 0C9.57415 0 9.16445 0.15034 8.855 0.42016L0.781668 7.4571C0.53447 7.67284 0.337637 7.93285 0.203228 8.22122C0.0688184 8.50958 -0.000335953 8.82022 1.22709e-06 9.1341V17.6959C0.000443062 18.3071 0.26403 18.8932 0.732823 19.3252C1.20162 19.7573 1.83725 20 2.5 20H5C5.66304 20 6.29893 19.7571 6.76777 19.3247C7.23661 18.8923 7.5 18.3058 7.5 17.6943V13.8515C7.5 13.6477 7.5878 13.4522 7.74408 13.3081C7.90036 13.1639 8.11232 13.083 8.33333 13.083H11.6667C11.8877 13.083 12.0996 13.1639 12.2559 13.3081C12.4122 13.4522 12.5 13.6477 12.5 13.8515V17.6943C12.5 18.3058 12.7634 18.8923 13.2322 19.3247C13.7011 19.7571 14.337 20 15 20H17.5C18.163 20 18.7989 19.7571 19.2678 19.3247C19.7366 18.8923 20 18.3058 20 17.6943V9.13256C19.9999 8.81883 19.9304 8.50842 19.7957 8.22033C19.661 7.93223 19.464 7.67253 19.2167 7.4571L11.145 0.417086V0.42016Z" fill="white"/>
</svg>
