<svg width="20" height="20" viewBox="0 0 20 20" fill="none" xmlns="http://www.w3.org/2000/svg">
<rect width="20" height="20" rx="3" fill="white"/>
<path d="M3 12.6886H4.78499C5.16547 12.6886 5.51299 12.4727 5.68153 12.1315L6.6721 10.1267C6.72548 10.02 6.81641 9.92837 6.9336 9.86318C7.05079 9.79799 7.18908 9.7621 7.33126 9.75998C7.47345 9.75785 7.61328 9.78959 7.73336 9.85124C7.85344 9.91289 7.94849 10.0017 8.00669 10.1067L9.13905 12.1691C9.5433 12.9053 10.6202 12.8454 10.9402 12.0688L12.4514 8.40153C12.5007 8.28106 12.597 8.1768 12.7258 8.10445C12.8547 8.03211 13.0091 7.9956 13.1658 8.00042C13.3225 8.00525 13.473 8.05115 13.5947 8.13121C13.7163 8.21127 13.8025 8.32115 13.8403 8.44431L14.2816 9.8733C14.5636 10.7863 15.8428 10.8217 16.1748 9.92569L18 5" stroke="black" stroke-opacity="0.2" stroke-width="2" stroke-linecap="round"/>
</svg>
