<svg width="20" height="20" viewBox="0 0 20 20" fill="none" xmlns="http://www.w3.org/2000/svg">
<path d="M18.4351 11.686C17.9128 11.2957 17.685 10.6521 17.685 10V10V10C17.685 9.35141 17.9234 8.71309 18.4554 8.3421L19.7831 7.41627C19.9783 7.27273 20.0759 6.98565 19.9295 6.74641L17.7826 3.20574C17.6362 2.96651 17.3922 2.87081 17.1483 3.01435L15.6702 3.68109C15.0761 3.94905 14.3959 3.86449 13.8299 3.54142V3.54142C13.2513 3.21108 12.816 2.64783 12.7545 1.98437L12.6105 0.430622C12.5617 0.191388 12.3665 0 12.1225 0H7.92627C7.6823 0 7.43833 0.191388 7.43833 0.430622L7.29201 2.0089C7.2319 2.65726 6.79178 3.21276 6.22259 3.52901V3.52901C5.64267 3.85123 4.95938 3.94305 4.35463 3.67027L2.90051 3.01435C2.65655 2.91866 2.36378 3.01435 2.2662 3.20574L0.168067 6.74641C0.0216861 6.98565 0.119273 7.27273 0.314448 7.41627L1.64217 8.3421C2.17419 8.71309 2.41258 9.35141 2.41258 10V10V10C2.41258 10.6464 2.16767 11.2813 1.6301 11.6402L0.216861 12.5837C0.0216861 12.7273 -0.0759013 13.0144 0.0704798 13.2536L2.16861 16.7943C2.31499 17.0335 2.55896 17.1292 2.80293 16.9856L4.28105 16.3189C4.87508 16.051 5.55535 16.1355 6.12129 16.4586V16.4586C6.69995 16.7889 7.13519 17.3522 7.1967 18.0156L7.34074 19.5694C7.38954 19.8086 7.58471 20 7.82868 20H12.0249C12.2689 20 12.5129 19.8086 12.5129 19.5694L12.6592 17.9911C12.7193 17.3427 13.1594 16.7872 13.7286 16.471V16.471C14.3085 16.1488 14.9918 16.0569 15.5966 16.3297L17.0507 16.9856C17.2947 17.0813 17.5874 16.9856 17.685 16.7943L19.7831 13.2536C19.9295 13.0144 19.8319 12.7273 19.6368 12.5837L18.4351 11.686ZM9.9756 14.7847C7.29195 14.7847 5.09623 12.6316 5.09623 10C5.09623 7.36842 7.29195 5.21531 9.9756 5.21531C12.6593 5.21531 14.855 7.36842 14.855 10C14.855 12.6316 12.6593 14.7847 9.9756 14.7847Z" fill="white"/>
</svg>
